<?xml version="1.0" standalone="no"?>
<!DOCTYPE svg PUBLIC "-//W3C//DTD SVG 20010904//EN"
 "http://www.w3.org/TR/2001/REC-SVG-20010904/DTD/svg10.dtd">
<svg version="1.0" xmlns="http://www.w3.org/2000/svg"
 width="1254.000000pt" height="1254.000000pt" viewBox="0 0 1254.000000 1254.000000"
 preserveAspectRatio="xMidYMid meet">

<g transform="translate(0.000000,1254.000000) scale(0.100000,-0.100000)"
fill="#000000" stroke="none">
<path d="M6209 11469 c-130 -20 -223 -131 -223 -268 0 -36 6 -91 13 -121 12
-46 24 -65 78 -117 l63 -63 0 -59 0 -58 -46 -7 c-26 -3 -72 -6 -103 -6 -168 0
-599 -65 -831 -126 -727 -190 -1342 -534 -1859 -1039 -303 -296 -512 -565
-727 -935 -312 -539 -512 -1189 -563 -1837 -5 -61 -12 -116 -16 -122 -3 -7
-41 -11 -89 -11 -82 0 -84 0 -95 28 -18 43 -99 118 -156 144 -67 30 -170 31
-237 1 -57 -26 -119 -88 -149 -151 -17 -36 -23 -65 -23 -122 0 -83 20 -140 69
-198 34 -41 122 -92 143 -84 9 3 13 1 9 -5 -10 -15 44 -27 117 -25 95 2 178
51 236 141 15 22 19 22 96 16 l80 -7 12 -182 c51 -783 291 -1502 713 -2132
421 -631 975 -1117 1667 -1463 493 -247 1090 -408 1655 -447 l97 -6 0 -88 0
-88 -34 -20 c-76 -45 -134 -169 -123 -264 7 -59 34 -122 72 -166 73 -87 227
-115 331 -60 54 28 103 77 130 131 25 48 30 154 10 215 -18 54 -92 146 -127
157 -18 6 -20 14 -17 93 l3 87 168 12 c1033 74 2006 529 2723 1276 473 492
807 1075 1007 1758 96 324 140 594 160 976 l12 218 82 3 c81 3 82 2 97 -25 42
-83 136 -134 241 -131 l70 1 -50 7 c-48 7 -47 7 15 5 105 -3 199 54 254 156
80 145 14 343 -136 410 -68 30 -184 33 -238 5 -59 -31 -99 -65 -141 -122 l-40
-55 -82 3 -82 3 -7 90 c-64 767 -310 1492 -715 2109 -410 625 -930 1089 -1600
1427 -416 211 -816 336 -1283 403 -96 14 -229 28 -295 31 -177 9 -165 3 -165
83 0 66 1 67 35 90 85 55 139 197 116 309 -30 153 -167 247 -322 222z m-29
-58 c0 -5 17 -5 39 1 29 8 52 6 89 -5 44 -12 50 -13 45 0 -8 21 65 -17 94 -49
43 -46 65 -125 43 -158 -8 -12 -12 -13 -19 -2 -6 10 -10 4 -15 -20 -10 -51
-41 -95 -93 -129 -43 -28 -45 -31 -18 -25 28 6 29 5 12 -8 -27 -21 -98 -31
-107 -16 -4 7 -32 22 -61 34 -61 24 -103 75 -126 153 l-13 48 4 -60 4 -60 -19
40 c-34 73 -16 156 47 219 39 38 94 60 94 37z m302 -353 c-15 -15 -16 -31 0
-22 6 4 3 -4 -8 -18 -22 -29 -83 -72 -91 -64 -3 3 11 15 31 27 38 22 48 36 19
24 -10 -3 -3 10 16 29 19 20 37 36 40 36 3 0 0 -5 -7 -12z m-419 -58 c-6 -7
-43 39 -43 54 0 6 11 -2 24 -19 13 -16 22 -32 19 -35z m64 -20 c14 -11 21 -20
15 -20 -12 0 -60 39 -49 40 5 0 20 -9 34 -20z m53 -124 c0 -73 -3 -96 -16
-107 -12 -9 -14 -23 -10 -49 l6 -37 -143 -6 c-243 -10 -595 -65 -852 -132
-953 -249 -1755 -815 -2310 -1630 -48 -71 -93 -134 -98 -140 -12 -12 25 53 63
110 42 63 46 72 29 58 -22 -18 -19 25 5 61 10 16 13 25 7 22 -17 -11 -133
-181 -212 -311 -315 -521 -517 -1132 -584 -1762 -9 -81 -15 -168 -14 -194 2
-25 -1 -50 -5 -57 -10 -16 -236 -17 -236 -1 0 9 28 10 100 6 69 -3 102 -2 108
6 5 7 12 68 16 137 11 209 53 465 117 725 190 763 598 1474 1160 2020 731 710
1660 1112 2704 1171 156 8 158 10 149 121 -5 59 -4 83 5 83 7 0 11 -30 11 -94z
m190 -91 c6 -7 58 -15 122 -19 439 -26 948 -142 1323 -301 381 -161 719 -361
1030 -609 289 -230 442 -391 748 -786 57 -73 189 -278 268 -415 302 -527 513
-1227 555 -1842 l7 -103 103 0 c63 0 104 -4 104 -10 0 -13 -195 -13 -220 0
-11 6 -17 17 -14 24 9 24 -25 339 -56 521 -198 1152 -851 2182 -1777 2803
-493 331 -1039 549 -1613 646 -153 26 -436 56 -528 56 l-54 0 4 -35 c2 -22 0
-34 -6 -32 -13 4 -24 85 -25 193 -1 110 13 117 17 8 2 -48 7 -93 12 -99z
m-803 -311 c-3 -3 -12 -4 -19 -1 -8 3 -5 6 6 6 11 1 17 -2 13 -5z m-62 -14
c-16 -4 -41 -8 -55 -8 -22 0 -22 1 5 8 17 4 41 8 55 8 22 0 22 -1 -5 -8z
m1000 0 c549 -41 1002 -164 1490 -407 532 -265 979 -635 1337 -1108 75 -100
212 -312 289 -450 455 -815 618 -1785 458 -2730 -72 -426 -223 -856 -436
-1243 -135 -244 -305 -490 -459 -663 -200 -224 -261 -288 -304 -324 -27 -22
-92 -76 -145 -120 -221 -182 -552 -387 -835 -515 -74 -34 -177 -81 -227 -106
-51 -25 -96 -43 -101 -40 -5 3 -49 -8 -100 -24 -238 -77 -526 -137 -792 -166
-174 -18 -545 -21 -715 -5 -473 46 -955 179 -1381 381 -119 56 -324 167 -324
175 0 3 78 -36 172 -85 172 -88 366 -175 509 -226 224 -81 573 -168 793 -199
394 -54 833 -42 1225 35 226 44 500 125 607 180 33 16 66 30 75 30 51 0 393
155 382 173 -3 6 -1 7 5 3 14 -8 72 20 72 36 0 6 3 9 6 5 3 -3 15 3 27 13 11
11 61 45 111 76 50 31 111 73 136 93 25 20 57 44 72 54 43 27 223 180 341 290
171 158 436 455 552 617 29 41 62 86 73 100 11 14 29 41 40 60 67 118 97 168
117 190 13 14 50 79 84 145 60 119 90 170 77 133 -16 -48 -15 -50 8 -8 32 60
129 307 171 437 137 420 203 883 191 1333 -9 348 -40 590 -115 895 -43 175
-151 499 -213 640 -145 330 -332 642 -550 918 -102 128 -339 370 -483 491
-413 349 -939 625 -1448 761 -306 81 -625 125 -915 125 -113 0 -139 -3 -172
-20 -21 -11 -64 -23 -94 -26 -54 -6 -70 -17 -43 -27 6 -3 1 -6 -13 -6 -14 -1
-61 -12 -105 -26 -44 -14 -90 -25 -101 -25 -25 0 -137 -42 -284 -108 -76 -34
-123 -53 -170 -69 -25 -8 -85 -34 -135 -58 -49 -23 -112 -52 -140 -65 -27 -12
-79 -36 -115 -52 -36 -16 -74 -33 -85 -38 -11 -4 -41 -17 -67 -29 -26 -12 -52
-21 -58 -21 -5 0 -10 -4 -10 -8 0 -5 -17 -16 -37 -25 -21 -9 -62 -32 -91 -52
-30 -19 -56 -35 -58 -35 -3 0 -10 -5 -17 -10 -7 -6 -43 -29 -82 -52 -61 -36
-170 -112 -185 -128 -3 -4 -22 -16 -43 -29 -20 -12 -56 -38 -80 -58 -68 -56
-70 -57 -132 -103 -194 -144 -395 -325 -540 -487 -48 -54 -113 -125 -144 -158
-76 -80 -218 -256 -268 -330 -22 -33 -65 -96 -95 -140 -30 -44 -83 -136 -116
-203 -34 -68 -65 -129 -70 -135 -20 -25 -104 -195 -127 -257 -13 -36 -35 -91
-49 -123 -36 -80 -54 -187 -38 -223 7 -14 11 -28 10 -30 -2 -1 -33 55 -69 126
-62 121 -67 127 -72 97 -3 -18 -21 -106 -40 -197 -86 -412 -104 -900 -47
-1335 24 -191 31 -228 77 -410 143 -574 399 -1098 752 -1540 132 -165 238
-276 476 -500 22 -20 -1 -3 -52 40 -239 200 -540 561 -734 880 -245 404 -399
793 -495 1253 -187 891 -73 1808 325 2618 195 398 424 718 736 1029 310 310
619 532 1015 729 471 234 919 350 1535 399 96 8 341 6 470 -3z m-1225 -49
c-158 -41 -276 -78 -445 -139 -98 -36 -173 -68 -365 -155 -31 -14 -116 -60
-190 -102 -476 -273 -861 -606 -1177 -1017 -135 -176 -158 -202 -97 -113 347
507 879 962 1449 1240 176 86 271 125 455 190 136 48 458 135 495 134 11 -1
-45 -18 -125 -38z m2047 -162 c59 -22 113 -93 113 -148 0 -28 4 -31 58 -46
234 -65 432 -172 635 -341 62 -52 70 -56 93 -45 59 26 161 4 206 -46 27 -29
48 -88 48 -132 0 -38 3 -41 80 -94 163 -110 307 -249 432 -417 67 -91 128
-185 128 -200 0 -6 24 -10 56 -10 68 0 119 -25 153 -76 25 -36 38 -114 27
-158 -9 -36 -55 -86 -79 -86 -11 0 -17 -3 -13 -7 4 -5 13 -8 19 -8 15 0 52
-104 80 -220 17 -74 21 -124 21 -275 1 -162 -2 -198 -23 -287 -13 -57 -28
-103 -32 -103 -4 0 -5 10 -3 23 l5 22 -11 -23 c-8 -20 -5 -27 25 -53 44 -39
70 -105 62 -162 l-6 -43 70 -60 c120 -101 251 -276 314 -416 27 -62 32 -67 55
-63 38 8 110 -33 132 -75 23 -44 23 -85 0 -129 -24 -48 -61 -72 -113 -74 -99
-4 -155 53 -147 149 4 41 11 61 31 82 l27 28 -53 101 c-68 132 -122 205 -237
324 l-95 98 -35 -34 c-60 -58 -122 -70 -195 -36 -123 56 -148 212 -49 304 29
27 31 19 -31 122 -13 21 -21 43 -19 47 3 4 0 8 -6 8 -6 0 -9 4 -5 9 3 5 -2 17
-11 26 -20 20 -114 173 -114 185 0 28 -278 351 -382 444 -57 51 -68 76 -32 76
26 0 306 -288 387 -398 85 -115 186 -278 243 -394 l38 -78 47 0 47 0 20 83
c59 237 51 479 -24 710 -25 74 -35 89 -49 67 -10 -17 -66 -11 -111 11 -47 22
-86 75 -86 116 l0 25 -127 -6 c-118 -6 -265 -20 -338 -32 -28 -4 -33 -9 -33
-33 0 -27 -34 -81 -79 -127 -12 -12 -41 -27 -65 -34 -80 -22 -179 30 -214 113
-17 40 -15 110 5 158 l17 42 -105 101 c-121 117 -293 267 -388 339 -36 27 -87
67 -112 88 -26 22 -52 39 -58 39 -7 0 -5 10 5 25 9 14 15 27 13 30 -3 2 -13
-8 -23 -23 -10 -15 -32 -38 -49 -50 -18 -12 -27 -22 -21 -22 6 0 23 9 38 21
32 25 35 8 4 -21 -32 -30 -120 -53 -169 -45 -97 17 -188 120 -189 216 l0 46
-132 48 c-163 59 -605 234 -673 266 l-50 24 -50 -50 c-81 -82 -184 -97 -281
-40 -137 80 -141 295 -6 389 34 24 55 31 108 34 85 6 141 -16 192 -73 l38 -44
125 40 c166 54 323 87 471 100 235 20 228 19 228 37 0 31 48 89 92 111 47 23
92 27 135 10z m-917 -614 c14 -8 21 -14 15 -14 -5 0 -21 6 -35 14 -14 8 -20
14 -15 14 6 0 21 -6 35 -14z m130 -55 c8 -5 11 -10 5 -10 -5 0 -17 5 -25 10
-8 5 -10 10 -5 10 6 0 17 -5 25 -10z m50 -20 c8 -5 11 -10 5 -10 -5 0 -17 5
-25 10 -8 5 -10 10 -5 10 6 0 17 -5 25 -10z m158 -60 c62 -24 110 -45 108 -47
-5 -5 -192 64 -226 84 -34 19 -14 13 118 -37z m-218 -340 c30 -4 -321 -9 -780
-11 -651 -3 -756 -5 -475 -9 198 -3 320 -6 271 -8 -94 -2 -115 -13 -27 -14 28
0 51 -3 51 -8 0 -10 -26 -31 -36 -29 -22 4 -34 -2 -34 -16 0 -12 24 -15 133
-18 85 -2 47 -4 -108 -5 -332 -4 -742 -20 -790 -32 l-40 -9 40 6 c62 9 2367
15 2376 6 6 -7 -69 -119 -437 -648 l-139 -200 -875 -5 c-865 -5 -876 -6 -954
-28 -180 -50 -314 -145 -403 -285 -42 -66 -43 -51 -1 22 58 102 183 206 293
243 160 55 101 52 1050 58 589 3 879 8 878 15 -1 6 -5 24 -8 40 -7 28 -7 29 8
10 8 -10 13 -26 10 -35 -5 -18 -16 -34 175 241 84 121 150 223 148 228 -8 12
53 103 63 96 8 -5 32 23 56 65 7 12 6 13 -7 2 -13 -11 -15 -7 -13 31 2 48 29
97 54 97 11 0 12 -3 4 -8 -8 -5 -9 -13 -3 -22 5 -8 5 -22 -1 -34 -6 -13 0 -9
15 9 14 17 26 35 26 40 -1 6 -7 1 -15 -9 -8 -11 -15 -16 -15 -10 1 17 28 46
32 33 2 -7 11 -1 20 13 l16 25 -53 -16 c-50 -15 -55 -20 -109 -101 -31 -47
-74 -110 -96 -140 -22 -30 -104 -146 -183 -258 l-142 -203 -790 1 c-488 0
-830 -4 -894 -10 -230 -24 -434 -124 -559 -273 -49 -60 -100 -156 -107 -207
l-5 -35 15 40 c9 22 20 44 25 49 4 4 1 -11 -8 -35 -25 -70 -22 -238 7 -311 41
-106 134 -187 264 -231 61 -21 80 -22 982 -27 1036 -7 970 -2 1144 -86 169
-82 293 -236 335 -414 11 -45 16 -118 16 -242 0 -149 3 -179 16 -193 14 -14
60 -15 416 -13 l400 3 24 28 24 29 -3 946 c-3 521 -8 966 -12 990 -4 24 -3 42
2 42 5 0 53 -28 107 -62 277 -179 570 -369 693 -451 l138 -92 3 -1802 2 -1801
-252 -234 c-346 -320 -726 -659 -730 -650 -2 4 -1 340 2 747 l6 740 2 -672 c1
-400 6 -673 11 -673 5 0 12 6 15 13 3 6 3 -10 -1 -38 -3 -27 -10 -58 -15 -69
-18 -33 7 -14 179 139 262 234 403 366 398 374 -2 5 10 21 28 37 31 29 32 29
8 2 -33 -38 -12 -36 24 2 19 20 29 40 29 62 0 25 11 44 52 87 29 31 51 57 49
59 -7 8 -184 -161 -179 -170 3 -5 0 -7 -8 -6 -7 2 -12 -2 -11 -8 1 -7 -4 -11
-11 -10 -11 1 -259 -216 -437 -381 -31 -29 -61 -53 -67 -53 -9 0 -12 232 -12
933 0 604 -4 948 -11 977 -5 24 -21 59 -35 77 -21 28 -22 32 -6 35 12 2 7 10
-23 28 l-40 25 -361 3 c-345 3 -362 2 -385 -17 l-24 -19 -5 -785 -5 -784 -66
-74 c-117 -130 -628 -670 -652 -689 -13 -10 -36 -51 -51 -90 -16 -39 -31 -68
-35 -63 -4 4 -4 341 -1 748 l6 740 3 -640 c2 -552 4 -636 16 -610 13 29 13 28
14 -35 1 -43 4 -61 11 -54 7 7 9 463 8 1395 -3 1291 -4 1388 -21 1443 -13 45
-15 61 -6 67 18 11 -12 84 -62 150 -85 115 -227 210 -376 251 -75 21 -103 22
-728 28 -549 6 -664 9 -738 23 -300 58 -536 214 -700 464 -120 182 -166 332
-174 568 -8 238 33 426 142 646 25 52 39 85 30 74 -26 -32 -112 -215 -140
-295 -23 -66 -28 -61 -9 10 6 21 4 23 -7 13 -7 -7 -21 -13 -31 -13 -10 0 -18
-4 -18 -9 0 -5 -9 -11 -20 -14 -13 -3 -20 0 -20 10 0 8 4 12 9 9 5 -4 7 2 5
11 -3 10 2 38 11 62 20 57 13 65 -8 9 -83 -221 -111 -526 -68 -746 46 -238
138 -433 291 -617 128 -154 319 -276 530 -339 47 -14 77 -25 68 -25 -25 -1
-174 47 -243 78 -342 155 -601 522 -671 951 -21 124 -14 356 15 490 108 511
449 936 934 1165 216 102 413 153 687 179 74 6 1618 4 1670 -4z m1485 -390
c10 -11 16 -20 13 -20 -3 0 -13 9 -23 20 -10 11 -16 20 -13 20 3 0 13 -9 23
-20z m825 -250 c-193 -16 -234 -19 -220 -14 33 10 160 21 230 21 l75 0 -85 -7z
m-215 -310 c38 -38 67 -70 64 -70 -2 0 -36 32 -74 70 -38 39 -67 70 -64 70 2
0 36 -31 74 -70z m-868 -287 c-3 -10 -5 -4 -5 12 0 17 2 24 5 18 2 -7 2 -21 0
-30z m-6127 -1086 c19 -1 45 -8 57 -15 38 -21 101 -152 74 -152 -6 0 -13 -17
-16 -37 -12 -79 -26 -113 -55 -135 -16 -11 -27 -25 -24 -30 10 -16 -80 -48
-137 -48 -71 0 -130 30 -172 88 -27 37 -32 54 -35 114 -4 67 -5 70 -19 47 -13
-23 -14 -22 -8 16 4 21 13 52 21 67 16 31 66 80 92 89 16 6 151 3 222 -4z
m9383 -11 c22 -9 36 -12 32 -7 -11 18 11 12 39 -10 46 -36 54 -65 46 -154 -10
-120 -41 -170 -129 -215 -69 -35 -134 -25 -206 29 -62 47 -83 84 -95 166 -4
28 -8 44 -9 38 0 -7 -5 -13 -11 -13 -5 0 -7 14 -3 33 15 81 68 136 138 143 27
2 51 7 54 10 11 11 106 -2 144 -20z m-8973 -326 c6 -8 8 -21 5 -29 -9 -23 14
-354 35 -510 50 -370 133 -685 268 -1021 81 -202 115 -272 278 -569 54 -98
-15 9 -89 138 -89 156 -149 271 -143 271 9 0 -56 145 -68 152 -6 4 -8 8 -4 8
3 0 -9 38 -27 83 -102 253 -190 606 -244 982 -9 64 -28 311 -34 445 l-2 55
-100 6 -100 6 108 -1 c84 -1 110 -4 117 -16z m8507 11 c-65 -4 -101 -10 -106
-19 -4 -7 -11 -90 -15 -184 -18 -467 -108 -909 -267 -1313 -23 -58 -37 -108
-33 -120 4 -17 3 -17 -6 -5 -9 12 -10 9 -6 -15 5 -24 4 -27 -5 -15 -9 12 -10
11 -6 -8 3 -12 2 -20 -3 -17 -4 3 -13 -10 -21 -28 -7 -17 -36 -83 -65 -144
-29 -62 -50 -113 -48 -113 3 0 30 51 59 113 30 61 54 107 54 101 1 -6 -39 -90
-87 -185 -375 -743 -894 -1307 -1582 -1721 -160 -96 -208 -120 -222 -112 -7 4
-8 3 -4 -4 4 -7 1 -13 -6 -14 -7 0 -17 -2 -23 -2 -25 -3 -74 -29 -69 -37 3 -5
-3 -6 -12 -2 -10 3 -15 2 -12 -3 4 -5 -4 -10 -15 -10 -12 -1 -62 -19 -112 -41
-289 -129 -683 -246 -1005 -297 -139 -22 -378 -46 -463 -46 -103 0 -106 -4
-110 -125 l-3 -100 -2 106 c-1 71 2 109 10 117 7 7 42 12 85 12 91 0 328 24
492 51 511 81 1099 307 1469 563 438 302 875 716 1167 1107 28 37 84 107 125
157 254 305 504 893 620 1456 43 209 93 666 89 812 -1 39 1 76 5 83 5 7 44 10
119 9 l112 -2 -98 -5z m-8747 -29 c0 -10 -7 -28 -16 -40 -19 -27 -92 -82 -108
-82 -6 0 4 9 23 21 18 11 31 23 27 26 -3 3 -14 0 -23 -7 -10 -8 3 8 30 35 26
26 47 52 47 57 0 4 5 8 10 8 6 0 10 -8 10 -18z m8883 -47 c-4 -12 -8 -13 -20
-4 -22 19 -35 48 -27 61 10 16 55 -38 47 -57z m440 0 c-11 -18 -73 -65 -87
-65 -6 0 3 8 19 19 17 10 39 28 49 40 22 24 31 27 19 6z m-3665 -82 c-21 -2
-55 -2 -75 0 -21 2 -4 4 37 4 41 0 58 -2 38 -4z m-3265 -60 c-7 -2 -19 -2 -25
0 -7 3 -2 5 12 5 14 0 19 -2 13 -5z m75 -10 c-10 -2 -26 -2 -35 0 -10 3 -2 5
17 5 19 0 27 -2 18 -5z m435 -10 c-73 -2 -193 -2 -265 0 -73 1 -14 3 132 3
146 0 205 -2 133 -3z m260 0 c-7 -2 -21 -2 -30 0 -10 3 -4 5 12 5 17 0 24 -2
18 -5z m-2221 -119 c36 -19 69 -68 75 -112 5 -43 -18 -106 -46 -124 -17 -11
-15 -16 32 -82 67 -95 170 -215 259 -304 l74 -73 45 20 c55 25 83 26 135 2
121 -55 123 -228 4 -289 -31 -16 -55 -21 -76 -17 l-31 5 -7 -61 c-13 -126 -5
-310 17 -418 l22 -103 42 -3 c52 -4 108 -37 128 -75 8 -16 15 -50 15 -75 0
-26 4 -44 9 -40 5 3 29 -2 53 -11 94 -34 307 -103 387 -124 l83 -23 22 26 c33
41 86 67 134 67 53 0 90 -18 131 -65 26 -30 31 -44 31 -88 0 -97 -64 -181
-139 -182 l-39 0 -7 -86 c-3 -48 -1 -133 4 -190 18 -167 18 -169 47 -169 65 0
144 -67 144 -123 0 -26 3 -27 53 -29 140 -5 346 13 487 43 44 9 45 11 47 49 2
22 9 53 18 70 8 16 15 31 15 33 0 5 -210 161 -241 179 -13 7 -55 38 -95 68
-40 30 -99 74 -131 98 -115 84 -168 128 -168 142 0 26 26 21 57 -12 17 -18 28
-26 24 -18 -4 8 2 4 14 -10 12 -14 19 -18 15 -10 -4 8 3 4 14 -9 12 -13 21
-20 21 -16 0 11 70 -43 107 -83 18 -18 37 -31 43 -27 6 4 9 1 8 -7 -2 -7 5
-13 14 -13 9 0 20 -4 25 -9 5 -5 2 -6 -7 -1 -20 10 -4 -5 34 -33 15 -12 33
-19 39 -15 6 3 7 1 3 -5 -8 -13 28 -35 39 -24 5 4 6 3 3 -3 -4 -5 42 -44 100
-86 l106 -76 39 28 c110 80 276 22 315 -110 16 -53 15 -120 -3 -155 -17 -32
-19 -39 -6 -32 4 3 26 -10 47 -28 95 -80 344 -244 344 -226 0 17 58 40 104 40
34 0 52 -6 77 -27 57 -48 73 -116 42 -180 -44 -93 -189 -99 -243 -10 -21 34
-26 97 -10 127 8 16 -3 26 -93 81 -94 57 -169 111 -253 182 l-34 29 -26 -31
c-94 -112 -281 -78 -339 62 -8 20 -18 37 -21 37 -3 0 -54 -10 -113 -22 -84
-17 -144 -21 -293 -22 l-187 -1 1 -34 c1 -28 -6 -41 -39 -72 -83 -77 -207 -58
-258 42 -17 32 -20 121 -5 149 9 16 0 27 -65 75 -41 31 -77 61 -81 66 -3 5 -9
7 -13 4 -11 -6 -193 182 -252 260 -95 125 -229 347 -229 379 1 30 1 30 16 11
9 -11 27 -42 41 -70 98 -193 303 -439 492 -591 58 -46 109 -84 115 -84 6 1 21
9 34 19 22 19 22 21 11 123 -11 98 -7 298 7 346 5 17 3 21 -8 17 -22 -9 -75
40 -88 82 -7 19 -10 54 -8 78 l5 42 -151 43 c-231 65 -318 89 -352 100 -41 13
-44 13 -44 -9 0 -30 -31 -59 -87 -79 -57 -22 -113 -17 -157 12 -34 22 -66 87
-66 133 0 48 30 114 63 139 l25 20 -20 80 c-27 109 -34 321 -16 437 l15 88
-38 37 c-45 45 -57 96 -40 161 11 43 11 45 -16 68 -52 43 -68 45 -25 3 24 -23
42 -43 40 -45 -7 -7 -107 83 -177 160 -76 84 -188 242 -177 252 3 3 -2 18 -10
33 -15 24 -21 26 -63 23 -88 -8 -151 53 -151 145 0 121 121 192 232 136z
m3385 -861 c-1 -71 -3 -13 -3 127 0 140 2 198 3 128 2 -71 2 -185 0 -255z
m-1662 222 c-5 -2 -40 -6 -77 -10 -66 -6 -67 -7 -56 -31 l11 -24 761 0 760 0
30 28 31 27 -26 -30 c-60 -71 -59 -66 -57 -302 l2 -218 6 215 c5 207 6 202 8
-125 l2 -340 -922 3 c-544 1 -926 -2 -931 -7 -5 -5 30 -12 90 -16 54 -3 107
-7 118 -8 11 -2 -74 -6 -190 -11 -115 -4 -226 -11 -245 -15 -19 -4 -49 -4 -67
0 -25 5 -39 2 -63 -16 l-30 -22 68 -6 c37 -4 189 -8 337 -9 l270 -2 -175 -7
c-96 -3 -264 -7 -373 -8 -167 -1 -198 1 -195 13 3 15 564 694 696 843 l73 83
77 -1 c42 0 73 -2 67 -4z m3216 -131 c17 -8 28 -18 25 -21 -3 -3 -12 0 -21 7
-8 7 -30 16 -48 20 -24 6 -26 8 -9 9 13 1 37 -6 53 -15z m-681 -937 l0 -583
-419 -424 c-231 -234 -420 -423 -420 -420 -1 3 186 194 414 425 l415 420 0
583 c0 320 2 582 5 582 3 0 5 -262 5 -583z m3181 556 c-12 -20 -14 -14 -5 12
4 9 9 14 11 11 3 -2 0 -13 -6 -23z m-20 -50 c-12 -20 -14 -14 -5 12 4 9 9 14
11 11 3 -2 0 -13 -6 -23z m-70 -180 c-12 -20 -14 -14 -5 12 4 9 9 14 11 11 3
-2 0 -13 -6 -23z m-2324 -30 c-3 -10 -5 -2 -5 17 0 19 2 27 5 18 2 -10 2 -26
0 -35z m-1847 -147 c0 -12 -5 -7 -19 24 -11 24 -11 24 3 6 9 -11 16 -24 16
-30z m-2339 -43 c13 -16 12 -17 -3 -4 -10 7 -18 15 -18 17 0 8 8 3 21 -13z
m6179 -133 c-6 -11 -13 -20 -16 -20 -2 0 0 9 6 20 6 11 13 20 16 20 2 0 0 -9
-6 -20z m-6990 -270 c244 -367 599 -741 955 -1005 592 -439 1228 -708 1940
-819 131 -21 246 -33 375 -42 100 -6 130 -15 130 -36 0 -5 -10 -2 -22 6 -14
10 -44 16 -78 16 -74 0 -296 24 -455 50 -263 42 -652 150 -915 255 -390 155
-879 450 -1185 715 -103 89 -353 340 -447 449 -126 145 -341 441 -388 531 -22
44 4 8 90 -120z m845 130 c13 -5 14 -9 5 -9 -8 0 -24 4 -35 9 -13 5 -14 9 -5
9 8 0 24 -4 35 -9z m-181 -265 l18 -30 -20 25 c-25 29 -112 183 -112 196 0 5
22 -29 48 -76 26 -47 56 -98 66 -115z m5874 -147 c-23 -29 -108 -118 -187
-198 l-144 -145 129 135 c71 74 153 163 183 198 65 75 80 83 19 10z m-5767 -5
c13 -16 12 -17 -3 -4 -17 13 -22 21 -14 21 2 0 10 -8 17 -17z m168 -186 c53
-55 129 -124 169 -154 71 -54 102 -86 40 -41 -106 74 -272 232 -338 321 l-32
42 32 -35 c18 -19 76 -79 129 -133z m5215 -195 c-54 -51 -167 -144 -147 -122
20 22 188 169 193 169 3 0 -18 -21 -46 -47z m-5079 -77 c79 -63 92 -76 31 -34
-27 19 -65 50 -86 69 -42 40 -29 32 55 -35z m4905 -70 c-7 -9 -27 -25 -44 -37
-23 -15 -21 -11 9 16 43 38 55 45 35 21z m-2603 -77 c-3 -8 -6 -5 -6 6 -1 11
2 17 5 13 3 -3 4 -12 1 -19z m-741 -69 c3 -6 -5 -3 -20 6 -14 10 -26 19 -26
22 0 7 39 -17 46 -28z m774 -1069 c0 -33 -4 -60 -10 -60 -11 0 -14 78 -4 104
11 28 14 18 14 -44z m140 -60 c16 -6 6 -7 -30 -3 -30 3 -57 7 -59 9 -8 7 64 2
89 -6z m33 -83 c25 -13 44 -20 41 -15 -14 23 28 4 50 -23 24 -28 25 -35 20
-107 -7 -93 -34 -154 -87 -196 -31 -25 -49 -31 -102 -34 -56 -4 -70 -1 -109
22 -54 31 -93 93 -102 159 -4 26 -11 44 -16 41 -15 -10 1 55 24 97 20 36 61
64 78 54 4 -3 23 2 41 10 50 21 109 18 162 -8z m107 -367 c0 -5 -5 -10 -11
-10 -5 0 -7 5 -4 10 3 6 8 10 11 10 2 0 4 -4 4 -10z"/>
<path d="M6288 11013 c7 -3 16 -2 19 1 4 3 -2 6 -13 5 -11 0 -14 -3 -6 -6z"/>
<path d="M6073 10723 c15 -2 37 -2 50 0 12 2 0 4 -28 4 -27 0 -38 -2 -22 -4z"/>
<path d="M6112 10703 c-15 -6 -6 -23 14 -23 8 0 14 7 14 15 0 15 -6 17 -28 8z"/>
<path d="M9700 4732 c-21 -42 -22 -42 -16 -42 8 0 38 61 33 66 -2 2 -10 -8
-17 -24z"/>
<path d="M6804 10010 c-144 -22 -296 -59 -420 -102 l-90 -32 0 -59 1 -59 210
-84 c241 -97 415 -164 530 -204 44 -15 87 -31 96 -34 12 -5 20 1 29 24 15 37
61 77 116 100 36 16 40 21 38 46 -17 145 -36 289 -39 293 -3 2 -11 -1 -19 -8
-11 -9 -23 -8 -55 5 -48 19 -87 61 -96 104 l-7 30 -86 -1 c-48 0 -141 -9 -208
-19z m164 -27 c-10 -2 -28 -2 -40 0 -13 2 -5 4 17 4 22 1 32 -1 23 -4z m-100
-10 c-10 -2 -26 -2 -35 0 -10 3 -2 5 17 5 19 0 27 -2 18 -5z m-173 -28 c-60
-13 -154 -35 -209 -50 -54 -14 -101 -24 -103 -22 -11 12 333 95 392 95 17 0
-19 -10 -80 -23z"/>
<path d="M7410 9959 c-17 -27 -34 -42 -53 -46 -19 -4 -26 -10 -23 -20 7 -17
32 -178 41 -259 6 -57 9 -62 33 -67 45 -9 108 -58 137 -104 16 -23 28 -43 29
-43 1 0 57 11 126 24 69 14 189 30 267 37 l143 13 11 35 c6 20 18 44 26 53 13
15 13 19 -1 39 -34 50 -214 170 -356 240 -135 67 -315 139 -343 139 -7 0 -23
-19 -37 -41z"/>
<path d="M6195 9679 c-50 -38 -51 -39 -27 -32 11 2 33 18 48 34 35 36 30 36
-21 -2z"/>
<path d="M7294 9469 c-32 -16 -54 -62 -54 -112 0 -37 6 -51 30 -76 99 -98 241
9 190 143 -17 47 -110 72 -166 45z m36 -23 c0 -2 -7 -7 -16 -10 -8 -3 -12 -2
-9 4 6 10 25 14 25 6z"/>
<path d="M7982 9429 c-45 -4 -150 -19 -232 -33 -82 -14 -154 -26 -160 -26 -5
0 -10 -15 -10 -32 -1 -18 -7 -50 -14 -70 -8 -21 -10 -38 -6 -38 14 0 255 -183
350 -266 52 -45 144 -132 203 -192 l109 -109 36 19 c20 10 44 18 53 18 14 0
18 17 24 106 7 107 4 181 -17 381 l-12 112 -27 -6 c-55 -11 -138 53 -154 120
-8 30 -4 30 -143 16z m-117 -60 c-71 -11 -137 -18 -145 -16 -23 5 168 34 225
35 31 0 0 -7 -80 -19z m-172 -26 c-7 -2 -19 -2 -25 0 -7 3 -2 5 12 5 14 0 19
-2 13 -5z"/>
<path d="M8420 9351 c-19 -21 -41 -40 -47 -42 -10 -3 -9 -24 4 -94 12 -65 17
-150 17 -306 l1 -215 42 -26 c24 -15 50 -43 62 -65 l19 -39 104 13 c57 7 167
15 245 19 l141 7 6 28 c3 15 21 43 41 63 l35 35 -60 92 c-85 130 -148 208
-254 313 -77 78 -300 257 -316 255 -3 0 -21 -17 -40 -38z"/>
<path d="M7222 9184 c10 -10 20 -16 22 -13 3 3 -5 11 -17 18 -21 13 -21 12 -5
-5z"/>
<path d="M9341 7655 c-1 -11 -4 -31 -6 -45 l-6 -25 11 25 c6 13 9 33 7 45 -4
19 -4 19 -6 0z"/>
<path d="M9147 7239 c7 -7 15 -10 18 -7 3 3 -2 9 -12 12 -14 6 -15 5 -6 -5z"/>
<path d="M9305 7240 c-3 -6 1 -7 9 -4 18 7 21 14 7 14 -6 0 -13 -4 -16 -10z"/>
<path d="M9818 6513 c6 -2 18 -2 25 0 6 3 1 5 -13 5 -14 0 -19 -2 -12 -5z"/>
<path d="M4818 9113 c6 -2 18 -2 25 0 6 3 1 5 -13 5 -14 0 -19 -2 -12 -5z"/>
<path d="M4658 8973 c7 -3 16 -2 19 1 4 3 -2 6 -13 5 -11 0 -14 -3 -6 -6z"/>
<path d="M6906 8723 c-6 -14 -5 -15 5 -6 7 7 10 15 7 18 -3 3 -9 -2 -12 -12z"/>
<path d="M6883 8688 c-15 -20 -25 -38 -20 -38 3 0 12 11 21 25 17 26 16 35 -1
13z"/>
<path d="M7844 8252 c38 -41 808 -549 848 -560 46 -12 7 23 -109 98 -71 46
-177 116 -238 155 -181 118 -387 250 -435 279 -25 15 -56 34 -70 43 -23 16
-23 14 4 -15z"/>
<path d="M8690 7667 l-25 -13 0 -154 c1 -85 3 -447 5 -805 l4 -650 5 465 c5
340 9 470 18 485 11 18 13 15 15 -25 1 -25 5 110 8 300 3 190 3 360 0 377 -5
31 -6 32 -30 20z m17 -164 c-3 -10 -5 -4 -5 12 0 17 2 24 5 18 2 -7 2 -21 0
-30z m0 -215 c-2 -18 -4 -4 -4 32 0 36 2 50 4 33 2 -18 2 -48 0 -65z m0 -190
c-2 -18 -4 -4 -4 32 0 36 2 50 4 33 2 -18 2 -48 0 -65z"/>
<path d="M4028 7209 c-5 -14 -76 -21 -84 -8 -3 5 -14 -1 -25 -13 -17 -21 -18
-21 -12 -3 6 18 5 18 -10 7 -9 -8 -22 -12 -29 -9 -7 2 -25 -2 -39 -9 -15 -7
-29 -11 -32 -7 -4 3 -14 2 -24 -2 -10 -5 -26 -7 -36 -6 -9 1 -24 -5 -33 -13
-9 -9 -20 -14 -25 -10 -5 3 -8 0 -7 -8 2 -8 -6 -12 -23 -10 -17 2 -29 -3 -33
-13 -3 -9 -10 -13 -16 -10 -5 3 -11 1 -11 -4 -1 -6 -2 -17 -3 -23 -1 -7 2 -21
6 -30 6 -12 5 -18 -2 -18 -8 0 -8 -6 0 -20 6 -11 9 -32 8 -47 -1 -16 2 -35 7
-42 5 -10 4 -12 -4 -7 -6 4 -23 30 -36 57 -14 27 -28 49 -30 49 -7 0 33 -78
57 -113 11 -15 24 -25 29 -22 5 4 6 0 4 -8 -7 -18 123 -151 207 -210 129 -92
293 -154 471 -177 39 -5 328 -10 640 -10 565 0 641 -4 772 -37 82 -20 194 -78
268 -137 54 -42 58 -44 27 -12 -20 21 -27 34 -17 31 10 -4 17 -2 17 5 0 6 4 9
9 5 5 -3 13 0 16 6 4 5 13 8 21 5 7 -3 16 -1 18 3 3 5 17 9 31 9 13 0 23 -4
20 -8 -2 -3 2 -7 10 -7 8 0 15 4 15 9 0 4 7 8 15 8 8 0 15 -4 15 -8 0 -5 7 -9
15 -9 8 0 12 4 9 9 -5 7 34 13 64 9 8 -1 21 4 30 11 13 11 14 11 7 -2 -7 -13
-6 -13 7 -2 9 7 26 15 38 17 40 8 60 16 60 26 0 5 9 9 21 9 11 0 17 5 14 10
-3 6 1 10 9 10 9 0 16 6 16 13 0 7 3 8 8 2 9 -13 35 -18 27 -5 -3 5 3 10 13
10 20 0 86 30 67 30 -5 0 1 6 15 13 15 7 28 25 31 42 4 17 7 26 8 21 0 -5 10
1 21 14 11 12 18 25 17 29 -18 40 -32 61 -41 60 -27 -3 -46 2 -46 12 0 5 5 7
10 4 6 -3 10 -1 10 5 0 7 -7 9 -16 6 -11 -4 -22 1 -31 13 -7 11 -20 18 -27 15
-7 -3 -21 2 -29 11 -9 8 -20 15 -24 14 -22 -4 -34 2 -27 14 6 9 4 9 -8 -1 -13
-10 -17 -10 -21 0 -4 10 -6 10 -6 1 -1 -7 -6 -13 -12 -13 -5 0 -8 4 -5 9 8 12
-29 23 -82 25 -24 1 -46 6 -50 11 -4 6 -19 10 -34 10 -21 -1 -25 2 -16 12 7 9
7 13 0 13 -6 0 -14 -5 -17 -10 -5 -8 -11 -7 -20 0 -8 7 -19 9 -25 5 -5 -3 -10
-1 -10 5 0 7 -8 9 -20 5 -13 -4 -20 -2 -20 7 0 10 -3 9 -10 -2 -9 -13 -12 -13
-25 4 -8 11 -21 16 -30 13 -8 -4 -15 -2 -15 4 0 6 -7 6 -19 -1 -14 -7 -22 -7
-26 0 -4 6 -14 9 -23 8 -9 -2 -16 2 -15 8 1 6 -8 10 -20 10 -13 -1 -21 4 -19
12 2 13 -19 12 -30 -2 -3 -5 -20 -3 -39 6 -18 9 -42 14 -54 12 -12 -2 -31 5
-43 17 -12 11 -22 15 -22 9 0 -14 -27 -13 -33 3 -4 10 -6 10 -6 0 -1 -7 -6
-13 -12 -13 -6 0 -9 6 -6 14 4 10 0 12 -14 9 -11 -3 -16 -10 -12 -17 5 -7 2
-7 -8 1 -14 11 -42 19 -99 28 -39 6 -54 10 -65 17 -24 14 -85 26 -91 17 -4 -6
-11 -6 -19 1 -8 7 -40 14 -72 16 -91 7 -117 11 -135 19 -12 5 -18 3 -18 -6 -1
-10 -4 -9 -10 3 -7 11 -21 15 -45 14 -19 -2 -36 1 -38 7 -1 5 -10 2 -19 -7 -9
-9 -18 -11 -20 -6 -2 6 -17 12 -33 15 -57 8 -80 15 -83 25 -2 6 -10 6 -20 1
-9 -5 -30 -7 -47 -4 -16 3 -45 6 -62 6 -18 1 -33 5 -33 8 0 7 -9 8 -80 11 -30
2 -57 6 -60 9 -5 7 -50 13 -225 31 -16 1 -37 9 -45 17 -10 9 -15 10 -18 2 -3
-8 -9 -8 -23 0 -11 5 -24 7 -29 4 -5 -3 -24 8 -41 25 -27 25 -37 29 -68 24
-100 -15 -101 -15 -95 1 4 8 4 15 1 15 -3 0 -7 -5 -9 -11z m2606 -575 c25 -5
33 -14 12 -14 -9 0 -15 -4 -12 -9 4 -5 -5 -4 -18 2 -13 7 -22 15 -20 18 2 4 1
9 -3 12 -5 2 -1 2 7 0 8 -3 23 -6 34 -9z"/>
<path d="M4468 7173 c6 -2 18 -2 25 0 6 3 1 5 -13 5 -14 0 -19 -2 -12 -5z"/>
<path d="M4523 7163 c9 -2 25 -2 35 0 9 3 1 5 -18 5 -19 0 -27 -2 -17 -5z"/>
<path d="M4628 7153 c23 -2 61 -2 85 0 23 2 4 4 -43 4 -47 0 -66 -2 -42 -4z"/>
<path d="M3501 7075 c0 -5 6 -21 14 -35 8 -14 14 -20 14 -15 0 6 -6 21 -14 35
-8 14 -14 21 -14 15z"/>
<path d="M8713 6860 c0 -25 2 -35 4 -22 2 12 2 32 0 45 -2 12 -4 2 -4 -23z"/>
<path d="M8713 6625 c0 -27 2 -38 4 -22 2 15 2 37 0 50 -2 12 -4 0 -4 -28z"/>
<path d="M6695 6611 c-6 -11 13 -26 22 -17 4 3 1 6 -6 6 -7 0 -9 5 -6 10 3 6
4 10 1 10 -3 0 -7 -4 -11 -9z"/>
<path d="M8715 5440 c0 -371 1 -523 2 -338 2 186 2 490 0 676 -1 185 -2 33 -2
-338z"/>
<path d="M8672 5286 c-1 -407 0 -737 2 -735 8 8 13 938 6 1209 -4 190 -7 54
-8 -474z"/>
<path d="M6533 4019 c-31 -23 -54 -35 -58 -29 -4 6 -1 18 6 26 8 10 14 11 19
4 4 -7 13 -3 25 10 10 11 13 20 7 20 -6 0 -13 -6 -15 -12 -4 -10 -8 -10 -15 0
-7 11 -11 10 -16 -4 -3 -9 -9 -14 -13 -11 -3 4 -11 0 -17 -9 -10 -13 -14 -13
-31 4 -19 18 -20 18 -42 -6 -24 -26 -30 -37 -13 -27 6 3 10 1 10 -4 0 -6 -4
-11 -9 -11 -4 0 -8 -8 -8 -17 0 -34 -3 -43 -14 -43 -5 0 -7 5 -3 12 4 7 3 8
-5 4 -6 -4 -9 -11 -6 -16 7 -11 -15 -60 -27 -60 -5 0 -6 -5 -3 -10 3 -6 -3
-23 -14 -39 -11 -15 -18 -30 -16 -33 3 -3 -1 -20 -7 -39 -13 -34 -13 -34 -19
36 -3 39 -6 -63 -6 -225 0 -162 2 -284 4 -270 6 32 61 90 86 90 11 0 60 39
111 87 l91 88 -85 -90 c-171 -181 -201 -218 -62 -76 79 80 207 214 284 296
l140 150 -141 -144 c-78 -79 -141 -140 -141 -135 0 6 17 27 38 47 22 22 39 48
40 64 1 14 9 34 17 43 8 9 12 20 8 23 -3 4 -1 7 5 7 6 0 12 10 14 22 2 13 15
29 31 36 15 7 28 22 28 33 5 75 4 81 -18 90 -24 9 -31 33 -13 44 6 3 10 12 9
18 0 9 -2 8 -6 -1 -2 -6 -9 -10 -14 -6 -5 3 -9 -2 -9 -10 0 -9 -5 -16 -12 -16
-6 0 -8 3 -5 7 4 3 1 13 -6 21 -10 13 -9 15 3 8 8 -4 5 1 -8 12 -12 11 -27 22
-33 24 -6 2 -11 16 -11 31 0 15 -1 27 -2 26 0 0 -24 -18 -53 -40z m43 -11 c-3
-13 -5 -25 -5 -27 -1 -3 -6 0 -13 7 -8 8 -8 15 2 27 17 21 21 19 16 -7z m-162
-19 c-6 -11 -24 -2 -24 11 0 5 7 7 15 4 8 -4 12 -10 9 -15z"/>
<path d="M8505 3914 c-57 -53 -57 -54 -9 -15 47 37 82 71 73 71 -2 0 -31 -25
-64 -56z"/>
<path d="M7881 3824 c0 -11 3 -14 6 -6 3 7 2 16 -1 19 -3 4 -6 -2 -5 -13z"/>
<path d="M1745 6410 c-10 -11 -13 -20 -8 -20 13 0 38 29 31 35 -3 3 -13 -4
-23 -15z"/>
<path d="M10660 6441 c0 -6 4 -13 10 -16 6 -3 7 1 4 9 -7 18 -14 21 -14 7z"/>
<path d="M2762 5949 c-12 -21 -18 -39 -12 -39 10 0 45 69 38 75 -2 2 -14 -14
-26 -36z"/>
<path d="M3355 5270 c-8 -26 -22 -41 -55 -59 -48 -27 -40 -42 9 -16 38 19 64
57 59 87 -3 20 -5 18 -13 -12z"/>
<path d="M3390 4424 c0 -17 -10 -46 -23 -65 -20 -30 -39 -43 -117 -78 -24 -11
-24 -11 5 -5 17 3 44 7 60 9 17 1 36 3 42 4 30 3 63 115 44 148 -9 16 -10 14
-11 -13z"/>
<path d="M4247 4139 c-4 -15 -25 -45 -48 -68 -46 -46 -47 -61 -1 -37 31 16 69
91 60 118 -3 7 -8 1 -11 -13z"/>
<path d="M5198 3371 c-27 -27 -48 -54 -48 -60 0 -14 -47 -14 -52 0 -2 6 -23
12 -46 14 l-43 2 22 -20 c17 -15 33 -20 67 -18 70 3 108 24 132 71 31 62 21
65 -32 11z"/>
<path d="M4247 3345 c-4 -11 -23 -37 -43 -58 -39 -40 -38 -45 5 -22 29 14 56
64 49 87 -3 8 -7 6 -11 -7z"/>
<path d="M5209 3303 c-13 -16 -12 -17 4 -4 9 7 17 15 17 17 0 8 -8 3 -21 -13z"/>
<path d="M5847 2933 l-17 -38 20 24 c11 13 20 29 20 37 0 22 -5 17 -23 -23z"/>
<path d="M5730 2895 c14 -8 32 -14 40 -15 23 0 -2 17 -35 24 l-30 6 25 -15z"/>
<path d="M4258 5403 c-25 -32 -61 -76 -79 -98 -19 -21 -29 -36 -22 -32 6 4 13
1 16 -5 5 -17 -23 -59 -34 -52 -5 3 -8 1 -7 -4 2 -5 -22 -40 -52 -78 -136
-169 -92 -124 128 134 117 137 130 155 119 173 -6 10 -15 19 -18 19 -3 0 -26
-26 -51 -57z m-5 -56 c6 3 -4 -12 -22 -35 -20 -24 -39 -38 -47 -35 -11 4 -6
15 18 46 18 22 34 35 36 28 2 -6 9 -8 15 -4z"/>
<path d="M4388 5362 c-16 -2 -28 -7 -28 -11 0 -5 12 -6 28 -3 15 2 24 2 21 -2
-4 -4 -20 -8 -35 -8 -23 -1 -42 -17 -94 -80 -36 -43 -64 -83 -62 -89 1 -6 -2
-8 -6 -5 -11 7 -95 -91 -89 -101 3 -5 -9 -24 -25 -43 -17 -19 -27 -28 -23 -20
4 8 17 25 28 38 11 12 18 22 15 22 -3 0 -30 -28 -59 -62 -29 -35 -39 -50 -22
-35 39 36 50 21 15 -20 -104 -122 -110 -131 -111 -165 -1 -10 5 -18 13 -18 7
0 25 -9 38 -20 25 -19 47 -20 927 -22 l901 -3 0 327 0 328 -702 -2 c-387 -1
-715 -4 -730 -6z m-218 -255 l-34 -32 30 36 c16 20 31 34 33 32 3 -2 -10 -18
-29 -36z"/>
<path d="M4114 5228 l-29 -33 33 29 c30 28 37 36 29 36 -2 0 -16 -15 -33 -32z"/>
<path d="M3944 4968 l-19 -23 23 19 c21 18 27 26 19 26 -2 0 -12 -10 -23 -22z"/>
<path d="M3979 4903 l-24 -28 26 23 c14 12 29 19 34 15 4 -5 5 -2 1 5 -9 16
-9 16 -37 -15z"/>
<path d="M3914 4828 l-19 -23 23 19 c21 18 27 26 19 26 -2 0 -12 -10 -23 -22z"/>
<path d="M5450 11343 c-14 -2 -86 -13 -160 -24 -674 -104 -1458 -449 -2035
-897 -223 -172 -539 -476 -710 -682 -534 -643 -891 -1401 -1040 -2206 -33
-180 -33 -215 3 -254 23 -27 37 -32 101 -41 41 -5 77 -11 80 -14 3 -3 -22 -3
-54 1 -56 7 -59 6 -43 -10 10 -9 23 -16 30 -15 7 1 29 -2 48 -7 34 -7 34 -8
10 -15 -24 -7 -24 -7 -2 -8 13 -1 29 5 36 12 12 10 12 15 -1 29 -13 14 -11 17
21 28 48 15 62 43 81 151 91 526 292 1067 568 1529 541 905 1382 1584 2372
1915 142 47 525 146 560 144 11 -1 0 -6 -25 -12 -37 -8 -41 -11 -22 -16 44
-11 200 4 219 21 10 9 34 21 53 27 31 9 27 10 -30 6 l-65 -4 65 12 c127 25
166 69 157 178 -12 137 -66 176 -217 152z m198 -151 c4 -81 2 -89 -20 -107
l-23 -20 18 21 c22 26 23 124 2 185 -15 42 -15 43 2 26 14 -14 19 -38 21 -105z
m-75 94 c12 -10 17 -27 17 -65 0 -28 -4 -51 -10 -51 -5 0 -10 10 -10 23 -1 73
-89 80 -346 27 -801 -165 -1489 -499 -2099 -1019 -55 -47 -172 -157 -260 -246
-656 -655 -1092 -1474 -1280 -2400 -19 -93 -35 -180 -35 -192 0 -14 -6 -23
-16 -23 -13 0 -15 6 -9 28 4 15 18 83 31 152 160 808 510 1543 1035 2175 119
142 383 410 524 530 309 263 602 455 970 635 390 191 791 324 1185 394 298 52
279 50 303 32z m-150 -293 c-7 -2 -19 -2 -25 0 -7 3 -2 5 12 5 14 0 19 -2 13
-5z m-50 -10 c-7 -2 -19 -2 -25 0 -7 3 -2 5 12 5 14 0 19 -2 13 -5z m-3612
-3696 l-24 -22 19 27 c10 14 21 24 23 22 3 -3 -6 -15 -18 -27z m-240 6 c13
-16 12 -17 -3 -4 -10 7 -18 15 -18 17 0 8 8 3 21 -13z"/>
<path d="M6918 11332 c-44 -27 -61 -73 -56 -158 3 -60 7 -77 28 -99 19 -21 23
-34 21 -71 -2 -42 -1 -45 17 -40 36 12 402 -61 607 -121 365 -105 765 -291
1146 -532 73 -46 296 -202 336 -235 10 -8 56 -45 103 -83 47 -37 126 -106 175
-153 50 -48 113 -103 141 -123 29 -20 78 -69 109 -107 32 -39 59 -70 61 -70
14 0 -32 54 -171 203 -86 92 -150 164 -142 161 17 -6 208 -208 292 -307 108
-128 310 -406 400 -549 109 -174 303 -556 373 -733 67 -171 174 -493 207 -625
15 -58 40 -174 55 -258 l29 -153 -20 -33 c-17 -29 -18 -35 -4 -46 12 -10 17
-7 31 17 16 28 19 28 86 25 69 -4 149 15 164 40 5 7 2 8 -6 3 -17 -11 -128
-34 -163 -35 -54 0 -17 17 49 23 70 7 114 27 114 52 0 18 16 20 23 3 15 -37 4
85 -17 188 -175 858 -530 1596 -1090 2269 -119 142 -378 404 -527 531 -621
532 -1360 882 -2129 1009 -181 29 -206 30 -242 7z m234 -27 c234 -36 410 -79
638 -155 290 -96 535 -205 795 -355 568 -328 1102 -821 1490 -1375 404 -579
671 -1198 810 -1879 30 -150 31 -159 4 -181 -20 -18 -115 -37 -126 -26 -3 3
-18 -1 -34 -9 -37 -19 -37 -20 -43 13 -44 232 -64 324 -101 467 -24 94 -53
197 -65 230 -12 33 -21 68 -21 78 0 10 -5 15 -11 11 -7 -5 -9 -1 -5 9 3 10 2
17 -4 17 -6 0 -9 6 -6 13 8 22 -109 321 -122 312 -11 -6 -82 155 -74 168 4 6
1 7 -7 2 -10 -6 -12 -4 -7 8 3 10 2 17 -3 17 -14 0 -42 59 -34 72 4 6 3 8 -3
5 -13 -8 -26 20 -16 35 3 6 1 8 -4 5 -6 -4 -14 0 -17 9 -3 8 -2 12 4 9 6 -3 7
1 4 9 -3 9 -10 13 -15 10 -5 -3 -6 3 -2 12 5 13 3 15 -7 9 -9 -5 -11 -4 -6 3
4 7 -8 40 -27 74 -19 35 -53 99 -77 143 -40 75 -77 133 -107 163 -7 7 -13 19
-13 26 0 7 -12 26 -26 42 -84 95 -113 134 -133 176 -13 27 -32 56 -44 65 -24
19 -135 169 -118 158 72 -44 -246 287 -429 448 -515 452 -1146 778 -1817 938
-125 30 -396 81 -440 83 -21 1 -23 6 -23 49 0 30 -4 46 -10 42 -5 -3 -10 -36
-10 -73 0 -46 -3 -63 -10 -56 -19 19 0 143 26 173 13 14 24 20 24 13 0 -10 5
-10 22 2 28 20 14 20 200 -9z m-222 -237 c0 -12 -6 -9 -26 13 -19 22 -19 22 4
8 12 -8 22 -17 22 -21z m1070 -308 c8 -5 11 -10 5 -10 -5 0 -17 5 -25 10 -8 5
-10 10 -5 10 6 0 17 -5 25 -10z m741 -407 c13 -16 12 -17 -3 -4 -10 7 -18 15
-18 17 0 8 8 3 21 -13z m99 -70 c0 -7 -61 31 -73 46 -7 8 7 2 31 -14 23 -15
42 -30 42 -32z m71 -50 c13 -16 12 -17 -3 -4 -10 7 -18 15 -18 17 0 8 8 3 21
-13z m40 -30 c13 -16 12 -17 -3 -4 -10 7 -18 15 -18 17 0 8 8 3 21 -13z m139
-108 c13 -14 21 -25 18 -25 -2 0 -15 11 -28 25 -13 14 -21 25 -18 25 2 0 15
-11 28 -25z m85 -75 c10 -11 16 -20 13 -20 -3 0 -13 9 -23 20 -10 11 -16 20
-13 20 3 0 13 -9 23 -20z m1510 -2740 c16 -17 16 -20 3 -15 -9 4 -19 13 -22
21 -7 19 -2 18 19 -6z"/>
<path d="M5060 10910 c-73 -24 -52 -24 30 0 36 10 56 19 45 19 -11 0 -45 -8
-75 -19z"/>
<path d="M5548 10923 c6 -2 18 -2 25 0 6 3 1 5 -13 5 -14 0 -19 -2 -12 -5z"/>
<path d="M5473 10913 c9 -2 23 -2 30 0 6 3 -1 5 -18 5 -16 0 -22 -2 -12 -5z"/>
<path d="M6968 10913 c6 -2 18 -2 25 0 6 3 1 5 -13 5 -14 0 -19 -2 -12 -5z"/>
<path d="M5418 10903 c6 -2 18 -2 25 0 6 3 1 5 -13 5 -14 0 -19 -2 -12 -5z"/>
<path d="M7028 10903 c6 -2 18 -2 25 0 6 3 1 5 -13 5 -14 0 -19 -2 -12 -5z"/>
<path d="M5348 10893 c6 -2 18 -2 25 0 6 3 1 5 -13 5 -14 0 -19 -2 -12 -5z"/>
<path d="M7088 10893 c6 -2 18 -2 25 0 6 3 1 5 -13 5 -14 0 -19 -2 -12 -5z"/>
<path d="M5298 10883 c6 -2 18 -2 25 0 6 3 1 5 -13 5 -14 0 -19 -2 -12 -5z"/>
<path d="M7160 10880 c14 -4 34 -8 45 -8 16 0 15 2 -5 8 -14 4 -34 8 -45 8
-16 0 -15 -2 5 -8z"/>
<path d="M5248 10873 c6 -2 18 -2 25 0 6 3 1 5 -13 5 -14 0 -19 -2 -12 -5z"/>
<path d="M5198 10863 c6 -2 18 -2 25 0 6 3 1 5 -13 5 -14 0 -19 -2 -12 -5z"/>
<path d="M7238 10863 c6 -2 18 -2 25 0 6 3 1 5 -13 5 -14 0 -19 -2 -12 -5z"/>
<path d="M5158 10853 c7 -3 16 -2 19 1 4 3 -2 6 -13 5 -11 0 -14 -3 -6 -6z"/>
<path d="M7365 10834 c50 -13 94 -22 100 -21 11 4 -158 47 -177 46 -7 0 28
-12 77 -25z"/>
<path d="M5118 10843 c7 -3 16 -2 19 1 4 3 -2 6 -13 5 -11 0 -14 -3 -6 -6z"/>
<path d="M5078 10833 c7 -3 16 -2 19 1 4 3 -2 6 -13 5 -11 0 -14 -3 -6 -6z"/>
<path d="M5038 10823 c7 -3 16 -2 19 1 4 3 -2 6 -13 5 -11 0 -14 -3 -6 -6z"/>
<path d="M4998 10813 c7 -3 16 -2 19 1 4 3 -2 6 -13 5 -11 0 -14 -3 -6 -6z"/>
<path d="M7495 10800 c11 -5 27 -9 35 -9 9 0 8 4 -5 9 -11 5 -27 9 -35 9 -9 0
-8 -4 5 -9z"/>
<path d="M7599 10769 c30 -10 56 -17 58 -15 5 5 -86 36 -101 35 -6 0 13 -9 43
-20z"/>
<path d="M4752 10743 c-57 -19 -102 -37 -99 -39 2 -2 55 14 118 35 63 22 107
39 99 39 -8 0 -61 -15 -118 -35z"/>
<path d="M7731 10726 c8 -8 142 -56 146 -52 2 2 -28 15 -67 30 -69 25 -88 30
-79 22z"/>
<path d="M4610 10690 c-8 -5 -10 -10 -5 -10 6 0 17 5 25 10 8 5 11 10 5 10 -5
0 -17 -5 -25 -10z"/>
<path d="M4535 10661 c-22 -11 -35 -19 -30 -19 14 -1 93 36 80 37 -5 0 -28 -8
-50 -18z"/>
<path d="M7949 10639 c35 -16 66 -28 68 -26 4 5 -114 57 -125 56 -4 0 22 -14
57 -30z"/>
<path d="M4460 10630 c-8 -5 -10 -10 -5 -10 6 0 17 5 25 10 8 5 11 10 5 10 -5
0 -17 -5 -25 -10z"/>
<path d="M4400 10605 c-14 -8 -20 -14 -15 -14 6 0 21 6 35 14 14 8 21 14 15
14 -5 0 -21 -6 -35 -14z"/>
<path d="M8201 10522 c208 -106 311 -166 484 -283 501 -339 937 -791 1250
-1296 31 -51 59 -93 62 -93 14 0 -204 329 -297 449 -221 284 -537 599 -805
802 -222 168 -515 348 -741 456 -172 81 -148 63 47 -35z"/>
<path d="M4280 10550 c-41 -21 -70 -39 -65 -39 6 0 44 18 85 39 41 21 71 39
65 39 -5 0 -44 -18 -85 -39z"/>
<path d="M4103 10461 c-720 -383 -1321 -972 -1735 -1701 -143 -252 -273 -551
-352 -814 -44 -143 -24 -107 28 52 264 804 764 1513 1455 2061 161 128 458
319 632 406 38 20 69 37 69 40 0 7 2 8 -97 -44z"/>
<path d="M10015 8810 c9 -16 18 -30 21 -30 2 0 -2 14 -11 30 -9 17 -18 30 -21
30 -2 0 2 -13 11 -30z"/>
<path d="M10055 8740 c9 -16 18 -30 21 -30 2 0 -2 14 -11 30 -9 17 -18 30 -21
30 -2 0 2 -13 11 -30z"/>
<path d="M10147 8565 c32 -63 59 -113 61 -111 4 5 -106 226 -113 226 -3 0 21
-52 52 -115z"/>
<path d="M1971 7794 c0 -11 3 -14 6 -6 3 7 2 16 -1 19 -3 4 -6 -2 -5 -13z"/>
<path d="M1941 7684 c0 -11 3 -14 6 -6 3 7 2 16 -1 19 -3 4 -6 -2 -5 -13z"/>
<path d="M1931 7644 c0 -11 3 -14 6 -6 3 7 2 16 -1 19 -3 4 -6 -2 -5 -13z"/>
<path d="M1921 7604 c0 -11 3 -14 6 -6 3 7 2 16 -1 19 -3 4 -6 -2 -5 -13z"/>
<path d="M10818 7233 c-10 -2 -18 -9 -18 -14 0 -14 26 -11 40 6 13 15 9 16
-22 8z"/>
<path d="M1824 7198 l-19 -23 23 19 c21 18 27 26 19 26 -2 0 -12 -10 -23 -22z"/>
<path d="M10744 5982 c27 -6 28 -8 12 -21 -31 -26 -45 -68 -61 -182 -44 -331
-113 -608 -230 -923 -294 -794 -770 -1447 -1455 -1995 -254 -204 -652 -446
-935 -569 -352 -152 -682 -255 -985 -306 -153 -26 -192 -42 -216 -88 -21 -40
-14 -176 10 -213 32 -49 69 -59 170 -46 50 7 157 25 237 41 701 141 1393 468
1974 936 149 120 378 326 384 347 2 6 -17 -8 -43 -33 -25 -24 -46 -39 -46 -33
0 6 16 25 35 42 102 89 356 377 492 556 79 105 245 356 312 473 29 50 56 92
58 92 14 0 -193 -335 -290 -470 -127 -177 -309 -398 -461 -557 -32 -35 -55
-63 -50 -62 12 1 216 223 311 339 302 368 551 782 729 1208 162 387 281 832
329 1224 14 114 14 131 0 157 -25 50 -59 69 -133 76 -132 11 -177 14 -148 7z
m24 -50 c-13 -16 -25 -24 -27 -19 -2 6 6 19 19 29 32 26 35 22 8 -10z m175 21
c-7 -2 -19 -2 -25 0 -7 3 -2 5 12 5 14 0 19 -2 13 -5z m76 -66 c10 -29 10 -30
-4 -13 -8 11 -15 24 -15 30 0 5 -8 19 -17 30 -18 21 -18 21 4 3 12 -11 26 -33
32 -50z m-43 5 c8 -5 6 -47 -8 -147 -144 -1093 -729 -2178 -1578 -2926 -577
-507 -1284 -874 -2016 -1044 -172 -40 -398 -77 -420 -68 -8 3 -14 18 -13 37
l1 31 10 -28 c12 -35 32 -35 209 -2 1058 196 2038 779 2729 1624 527 643 867
1357 1019 2136 30 154 53 325 49 362 -4 34 -1 38 18 25z m41 -119 c-3 -10 -5
-2 -5 17 0 19 2 27 5 18 2 -10 2 -26 0 -35z m-10 -85 c-3 -7 -5 -2 -5 12 0 14
2 19 5 13 2 -7 2 -19 0 -25z m-10 -70 c-3 -7 -5 -2 -5 12 0 14 2 19 5 13 2 -7
2 -19 0 -25z m-433 -562 c-3 -15 -8 -25 -11 -23 -2 3 -1 17 3 31 3 15 8 25 11
23 2 -3 1 -17 -3 -31z m-48 -142 c-94 -279 -221 -553 -390 -839 -349 -590
-887 -1141 -1474 -1509 -144 -91 -325 -190 -478 -263 -181 -86 -145 -61 66 45
442 222 792 472 1149 817 483 469 892 1104 1106 1718 26 75 49 136 51 134 2
-2 -11 -48 -30 -103z m165 -401 c-12 -20 -14 -14 -5 12 4 9 9 14 11 11 3 -2 0
-13 -6 -23z m-25 -60 c-8 -15 -15 -25 -16 -21 0 12 23 58 27 54 3 -2 -2 -17
-11 -33z m-45 -100 c-11 -21 -20 -35 -21 -31 0 12 33 78 38 74 2 -2 -6 -21
-17 -43z m-48 -98 c-3 -9 -8 -14 -10 -11 -3 3 -2 9 2 15 9 16 15 13 8 -4z
m-25 -50 c-6 -14 -13 -23 -15 -21 -5 5 15 46 22 46 3 0 -1 -11 -7 -25z m-38
-75 c-11 -22 -23 -40 -25 -40 -3 0 4 18 15 40 11 22 23 40 25 40 3 0 -4 -18
-15 -40z m-1002 -1299 c-129 -119 -388 -330 -388 -318 0 3 51 46 114 96 63 50
161 134 218 185 57 52 107 95 112 95 5 1 -20 -26 -56 -58z m-398 -326 c0 -2
-20 -18 -45 -35 -25 -17 -45 -29 -45 -26 0 4 80 64 88 66 1 0 2 -2 2 -5z
m-100 -70 c0 -4 -126 -91 -160 -110 -33 -19 4 11 77 61 84 57 83 56 83 49z
m-197 -133 c-27 -20 -131 -79 -121 -67 9 9 131 84 138 84 3 0 -5 -7 -17 -17z
m-803 -77 c-14 -8 -29 -14 -35 -14 -5 0 1 6 15 14 14 8 30 14 35 14 6 0 -1 -6
-15 -14z m670 0 c0 -2 -10 -9 -22 -15 -22 -11 -22 -10 -4 4 21 17 26 19 26 11z
m-730 -25 c-8 -5 -19 -10 -25 -10 -5 0 -3 5 5 10 8 5 20 10 25 10 6 0 3 -5 -5
-10z m-50 -20 c-8 -5 -19 -10 -25 -10 -5 0 -3 5 5 10 8 5 20 10 25 10 6 0 3
-5 -5 -10z m710 5 c0 -2 -18 -14 -40 -25 -22 -11 -40 -18 -40 -15 0 2 17 13
38 24 42 23 42 23 42 16z m-760 -24 c-8 -5 -26 -11 -40 -15 -21 -5 -20 -3 5 9
32 15 60 20 35 6z m-80 -31 c-8 -5 -22 -9 -30 -9 -10 0 -8 3 5 9 27 12 43 12
25 0z m750 5 c0 -6 -56 -35 -67 -35 -4 1 8 9 27 20 39 22 40 22 40 15z m-825
-30 c-16 -8 -37 -14 -45 -14 -8 0 1 7 20 14 46 18 64 17 25 0z m-128 -41 c-3
-3 -12 -4 -19 -1 -8 3 -5 6 6 6 11 1 17 -2 13 -5z m713 -49 c-14 -8 -29 -14
-35 -14 -5 0 1 6 15 14 14 8 30 14 35 14 6 0 -1 -6 -15 -14z m-105 -45 c-33
-16 -64 -29 -70 -29 -13 1 107 57 120 57 6 0 -17 -13 -50 -28z m-105 -44 c-14
-7 -36 -16 -50 -20 -14 -3 -7 3 15 13 45 22 73 27 35 7z m-1130 1 c0 -2 -12
-14 -27 -28 l-28 -24 24 28 c23 25 31 32 31 24z m1010 -46 c-8 -5 -26 -11 -40
-15 -21 -5 -20 -3 5 9 32 15 60 20 35 6z m-70 -25 c0 -6 -121 -46 -134 -45 -6
0 18 11 54 24 68 25 80 28 80 21z m-220 -72 c-41 -13 -79 -23 -85 -23 -14 1
127 47 145 47 8 0 -19 -11 -60 -24z m-103 -30 c-3 -3 -12 -4 -19 -1 -8 3 -5 6
6 6 11 1 17 -2 13 -5z m-40 -10 c-3 -3 -12 -4 -19 -1 -8 3 -5 6 6 6 11 1 17
-2 13 -5z m-40 -10 c-3 -3 -12 -4 -19 -1 -8 3 -5 6 6 6 11 1 17 -2 13 -5z
m-40 -10 c-3 -3 -12 -4 -19 -1 -8 3 -5 6 6 6 11 1 17 -2 13 -5z m-50 -10 c-3
-3 -12 -4 -19 -1 -8 3 -5 6 6 6 11 1 17 -2 13 -5z m-372 -57 l60 -3 -61 -2
c-49 -2 -67 2 -88 19 -14 11 -26 25 -26 32 0 6 12 -1 28 -16 22 -21 39 -27 87
-30z m230 28 c-60 -13 -123 -23 -140 -23 -16 0 22 10 85 23 63 12 126 22 140
22 14 1 -24 -10 -85 -22z"/>
<path d="M1648 5973 c7 -3 16 -2 19 1 4 3 -2 6 -13 5 -11 0 -14 -3 -6 -6z"/>
<path d="M1555 5960 l60 -7 -45 -3 c-25 -2 -58 -4 -74 -5 -20 -1 -39 -13 -58
-36 -33 -39 -38 -25 -7 17 l21 29 -27 -30 c-27 -29 -28 -31 -22 -125 7 -126
48 -353 102 -577 206 -849 632 -1603 1259 -2228 619 -618 1371 -1044 2223
-1261 200 -51 439 -94 535 -97 63 -2 69 0 99 29 27 27 33 42 42 112 9 70 8 82
-6 97 -10 9 -17 20 -17 25 0 5 -13 16 -29 26 -17 10 -27 23 -24 33 2 9 -2 24
-9 34 -13 18 -19 20 -128 38 -762 130 -1556 513 -2174 1048 -563 487 -1043
1207 -1286 1931 -57 168 -100 271 -111 264 -5 -3 -9 0 -9 7 0 9 -3 10 -10 3
-7 -7 -6 -36 2 -90 6 -43 12 -91 11 -106 0 -15 3 -26 6 -24 3 2 7 -10 8 -28 2
-40 78 -262 139 -408 132 -314 364 -717 558 -968 242 -313 510 -581 831 -829
125 -97 165 -131 105 -90 -240 163 -543 438 -775 704 -298 341 -601 844 -780
1295 -126 318 -228 726 -269 1075 -6 55 -16 100 -21 100 -6 0 -21 8 -35 18
-27 19 -20 23 11 7 12 -7 19 -7 19 -1 0 5 8 12 18 14 18 5 13 6 -118 11 -72 3
-73 3 -15 -4z m90 -87 c99 -710 281 -1254 600 -1793 596 -1005 1526 -1729
2661 -2069 155 -47 405 -104 558 -127 140 -22 146 -27 135 -120 -12 -94 -29
-108 -119 -99 -205 21 -575 106 -823 189 -929 310 -1725 881 -2317 1661 -470
619 -775 1335 -895 2103 -44 279 -36 300 122 301 l72 1 6 -47z m2035 -3239 c0
-2 -27 14 -60 36 -33 22 -60 43 -60 46 0 2 27 -14 60 -36 33 -22 60 -43 60
-46z m1950 -944 c-10 -19 -40 -40 -56 -40 -7 0 56 58 64 60 1 0 -2 -9 -8 -20z"/>
<path d="M2476 3370 c131 -160 457 -500 469 -489 3 4 -17 27 -45 53 -46 43
-64 66 -40 51 6 -3 10 2 10 11 0 14 -3 15 -12 6 -17 -17 -31 -15 -25 2 4 9 1
13 -7 10 -11 -4 -134 121 -275 281 -30 33 -63 69 -75 80 l-20 20 20 -25z"/>
<path d="M2902 3084 c139 -141 146 -150 132 -169 -9 -12 -18 -16 -22 -10 -11
15 -32 17 -32 2 0 -8 -4 -7 -10 3 -5 8 -10 11 -10 6 0 -5 -7 -3 -15 4 -8 7
-15 8 -15 2 0 -5 7 -15 15 -22 8 -7 12 -16 10 -21 -14 -22 373 -331 605 -481
523 -340 1156 -592 1725 -688 131 -22 283 -36 255 -24 -8 4 -19 13 -23 20 -4
8 -21 14 -37 14 -16 0 -60 12 -97 26 -96 36 -149 52 -218 64 -33 6 -83 20
-111 30 -29 10 -80 26 -115 35 -35 9 -83 25 -107 36 -23 10 -66 24 -95 30 -43
9 -117 43 -117 53 0 2 12 1 28 -1 15 -3 -49 27 -143 65 -360 146 -615 278
-890 461 -176 117 -187 123 -165 95 14 -18 14 -18 -2 -5 -10 7 -16 17 -13 21
5 7 -137 120 -151 120 -4 0 0 -8 7 -17 16 -21 14 -19 -78 56 -29 23 -59 44
-66 45 -16 2 -62 34 -62 44 0 4 -3 6 -8 4 -4 -1 -6 3 -5 10 2 7 -2 12 -9 13
-6 0 -15 4 -20 9 -5 5 -2 6 6 1 9 -5 12 -4 7 3 -14 23 10 12 37 -16 15 -16 24
-32 20 -37 -5 -4 -3 -5 3 -2 7 4 44 -20 83 -53 67 -56 81 -66 81 -56 0 2 -50
46 -111 97 -62 51 -180 158 -263 238 l-151 145 147 -150z m133 -264 c10 -11
16 -20 13 -20 -3 0 -13 9 -23 20 -10 11 -16 20 -13 20 3 0 13 -9 23 -20z"/>
<path d="M10581 5574 c0 -11 3 -14 6 -6 3 7 2 16 -1 19 -3 4 -6 -2 -5 -13z"/>
<path d="M1871 5544 c0 -11 3 -14 6 -6 3 7 2 16 -1 19 -3 4 -6 -2 -5 -13z"/>
<path d="M1881 5494 c0 -11 3 -14 6 -6 3 7 2 16 -1 19 -3 4 -6 -2 -5 -13z"/>
<path d="M1891 5444 c0 -11 3 -14 6 -6 3 7 2 16 -1 19 -3 4 -6 -2 -5 -13z"/>
<path d="M1901 5394 c0 -11 3 -14 6 -6 3 7 2 16 -1 19 -3 4 -6 -2 -5 -13z"/>
<path d="M1911 5354 c0 -11 3 -14 6 -6 3 7 2 16 -1 19 -3 4 -6 -2 -5 -13z"/>
<path d="M1941 5244 c0 -11 3 -14 6 -6 3 7 2 16 -1 19 -3 4 -6 -2 -5 -13z"/>
<path d="M1961 5180 c0 -8 4 -24 9 -35 5 -13 9 -14 9 -5 0 8 -4 24 -9 35 -5
13 -9 14 -9 5z"/>
<path d="M2001 5050 c0 -8 6 -28 14 -45 17 -39 18 -21 0 25 -7 19 -14 28 -14
20z"/>
<path d="M2050 4906 c0 -19 111 -280 184 -431 173 -358 393 -687 668 -1000
538 -610 1295 -1086 2103 -1320 86 -25 164 -45 173 -44 9 0 -37 15 -103 34
-478 133 -909 331 -1327 608 -729 484 -1305 1195 -1638 2022 -50 126 -60 147
-60 131z"/>
<path d="M10220 4469 c-7 -11 -10 -23 -7 -25 2 -2 9 7 15 21 14 30 7 33 -8 4z"/>
<path d="M10185 4399 c-9 -17 -15 -33 -13 -35 3 -2 12 12 21 31 21 43 13 47
-8 4z"/>
<path d="M10140 4310 c-6 -11 -8 -20 -6 -20 3 0 10 9 16 20 6 11 8 20 6 20 -3
0 -10 -9 -16 -20z"/>
<path d="M10090 4220 c-6 -11 -8 -20 -6 -20 3 0 10 9 16 20 6 11 8 20 6 20 -3
0 -10 -9 -16 -20z"/>
<path d="M10050 4150 c-6 -11 -8 -20 -6 -20 3 0 10 9 16 20 6 11 8 20 6 20 -3
0 -10 -9 -16 -20z"/>
<path d="M9990 4050 c-6 -11 -8 -20 -6 -20 3 0 10 9 16 20 6 11 8 20 6 20 -3
0 -10 -9 -16 -20z"/>
<path d="M9839 3823 c-13 -16 -12 -17 4 -4 9 7 17 15 17 17 0 8 -8 3 -21 -13z"/>
<path d="M9789 3753 c-13 -16 -12 -17 4 -4 16 13 21 21 13 21 -2 0 -10 -8 -17
-17z"/>
<path d="M9669 3603 c-57 -71 -158 -184 -224 -252 -66 -69 -109 -116 -94 -105
36 27 202 204 285 304 104 126 147 180 142 180 -3 0 -52 -57 -109 -127z"/>
<path d="M9279 3184 c-133 -139 -512 -430 -726 -558 -35 -21 -63 -40 -63 -42
0 -15 251 151 417 274 155 116 435 362 412 362 -3 0 -21 -16 -40 -36z"/>
<path d="M8413 2544 c-35 -19 -63 -38 -63 -41 0 -5 109 54 125 68 16 16 1 9
-62 -27z"/>
<path d="M8260 2460 c-41 -21 -128 -62 -192 -91 -65 -29 -116 -54 -114 -56 8
-8 386 170 386 182 0 7 3 8 -80 -35z"/>
<path d="M7910 2300 c-8 -5 -10 -10 -5 -10 6 0 17 5 25 10 8 5 11 10 5 10 -5
0 -17 -5 -25 -10z"/>
<path d="M7860 2280 c-8 -5 -10 -10 -5 -10 6 0 17 5 25 10 8 5 11 10 5 10 -5
0 -17 -5 -25 -10z"/>
<path d="M7810 2260 c-8 -5 -10 -10 -5 -10 6 0 17 5 25 10 8 5 11 10 5 10 -5
0 -17 -5 -25 -10z"/>
<path d="M7665 2210 c-60 -21 -105 -39 -99 -39 12 -1 215 66 222 74 10 10 -14
3 -123 -35z"/>
<path d="M7468 2143 c7 -3 16 -2 19 1 4 3 -2 6 -13 5 -11 0 -14 -3 -6 -6z"/>
<path d="M7428 2133 c7 -3 16 -2 19 1 4 3 -2 6 -13 5 -11 0 -14 -3 -6 -6z"/>
<path d="M7388 2123 c7 -3 16 -2 19 1 4 3 -2 6 -13 5 -11 0 -14 -3 -6 -6z"/>
<path d="M5208 2103 c7 -3 16 -2 19 1 4 3 -2 6 -13 5 -11 0 -14 -3 -6 -6z"/>
<path d="M5309 2080 c41 -10 99 -21 130 -24 39 -4 28 0 -39 13 -143 29 -173
33 -91 11z"/>
<path d="M7268 2093 c7 -3 16 -2 19 1 4 3 -2 6 -13 5 -11 0 -14 -3 -6 -6z"/>
<path d="M7228 2083 c7 -3 16 -2 19 1 4 3 -2 6 -13 5 -11 0 -14 -3 -6 -6z"/>
<path d="M7178 2073 c6 -2 18 -2 25 0 6 3 1 5 -13 5 -14 0 -19 -2 -12 -5z"/>
<path d="M7080 2060 c-34 -7 -34 -7 -5 -8 17 0 44 4 60 8 27 7 27 8 5 8 -14
-1 -41 -4 -60 -8z"/>
<path d="M5513 2043 c9 -2 23 -2 30 0 6 3 -1 5 -18 5 -16 0 -22 -2 -12 -5z"/>
<path d="M7003 2043 c9 -2 23 -2 30 0 6 3 -1 5 -18 5 -16 0 -22 -2 -12 -5z"/>
<path d="M5578 2033 c7 -3 16 -2 19 1 4 3 -2 6 -13 5 -11 0 -14 -3 -6 -6z"/>
<path d="M6943 2033 c9 -2 23 -2 30 0 6 3 -1 5 -18 5 -16 0 -22 -2 -12 -5z"/>
</g>
</svg>
