<?xml version="1.0" standalone="no"?>
<!DOCTYPE svg PUBLIC "-//W3C//DTD SVG 20010904//EN"
 "http://www.w3.org/TR/2001/REC-SVG-20010904/DTD/svg10.dtd">
<svg version="1.0" xmlns="http://www.w3.org/2000/svg"
 width="1254.000000pt" height="1254.000000pt" viewBox="0 0 1254.000000 1254.000000"
 preserveAspectRatio="xMidYMid meet">

<g transform="translate(0.000000,1254.000000) scale(0.100000,-0.100000)"
fill="#000000" stroke="none">
<path d="M6313 11624 c27 -8 54 -13 60 -11 18 7 -40 27 -76 26 -29 0 -28 -2
16 -15z"/>
<path d="M6100 11560 c-79 -84 -75 -257 7 -342 33 -35 120 -68 176 -68 58 1
109 28 118 63 7 24 5 28 -9 22 -67 -28 -117 -42 -135 -37 -20 5 -20 6 -1 13
10 4 32 8 47 8 39 1 97 27 130 58 15 15 27 22 27 16 0 -6 -7 -16 -15 -23 -8
-7 -12 -16 -9 -21 3 -5 0 -19 -7 -31 l-12 -23 23 20 c39 35 61 92 65 168 2 40
2 62 -1 50 -3 -13 -13 -23 -23 -23 -10 0 -24 -16 -35 -41 -10 -22 -20 -38 -23
-36 -2 3 0 14 6 25 12 23 15 73 3 56 -9 -14 -91 -34 -140 -34 -49 0 -82 32
-89 89 -3 22 -12 46 -19 52 -21 17 -17 27 19 49 17 11 27 20 22 20 -14 0 -57
-29 -73 -48 -18 -24 -38 -1 -23 27 17 30 4 26 -29 -9z m18 -72 c-6 -18 -12
-39 -14 -45 -2 -7 -10 -13 -19 -13 -22 0 -19 40 7 67 30 32 38 29 26 -9z m50
-168 c9 0 27 7 39 15 31 22 78 3 94 -38 7 -18 14 -35 16 -38 8 -13 -45 -25
-84 -19 -50 7 -78 30 -104 84 -25 52 -24 70 1 29 11 -18 28 -33 38 -33z m52
-107 c3 -2 -7 -2 -23 2 -19 5 -27 3 -27 -6 -1 -15 -30 18 -30 32 0 7 68 -17
80 -28z"/>
<path d="M5775 11549 c-38 -5 -74 -11 -80 -14 -15 -7 135 6 175 15 34 8 34 8
5 8 -16 0 -61 -5 -100 -9z"/>
<path d="M5923 11437 c1 -70 -2 -127 -6 -127 -4 0 -72 -11 -150 -25 -458 -80
-857 -228 -1249 -463 -178 -106 -280 -184 -480 -363 -227 -205 -314 -297 -527
-558 -258 -318 -508 -838 -610 -1271 -48 -200 -65 -314 -51 -340 6 -12 9 -24
7 -27 -3 -2 -10 4 -16 15 -7 14 -30 22 -86 32 -76 13 -87 25 -30 32 24 3 16 7
-39 20 -54 13 -73 14 -88 5 -20 -13 -19 -28 6 -88 14 -35 18 -36 134 -67 66
-18 126 -32 135 -32 17 0 23 23 52 199 51 299 214 754 372 1036 186 334 421
637 678 876 466 434 1063 736 1721 871 107 22 153 35 150 44 -2 6 1 17 7 23
18 18 48 13 54 -9 3 -11 12 -20 19 -20 11 0 14 30 13 158 -1 86 -5 168 -10
182 -5 16 -7 -22 -6 -103z"/>
<path d="M6715 11453 c3 -15 12 -31 18 -35 7 -5 3 -8 -11 -8 -18 0 -22 4 -18
18 3 9 1 24 -5 32 -7 11 -9 6 -7 -20 4 -41 0 -40 217 -70 339 -47 723 -169
1051 -336 858 -435 1470 -1128 1792 -2029 48 -134 120 -414 142 -550 30 -184
27 -173 39 -147 5 12 17 22 25 22 14 0 14 2 0 13 -10 7 -22 41 -29 77 -20 112
-60 304 -70 335 -5 17 -25 86 -45 155 -20 69 -50 151 -66 182 -15 32 -58 131
-94 220 -36 90 -76 179 -89 199 -13 20 -42 73 -65 119 -51 102 -170 282 -298
450 -105 137 -433 473 -455 464 -7 -2 -31 12 -52 31 l-40 37 35 -22 c29 -18
26 -14 -15 24 -27 25 -54 46 -60 45 -5 0 1 -9 14 -19 13 -11 19 -20 14 -20 -6
0 -18 9 -28 20 -10 11 -15 20 -10 20 4 0 2 7 -5 15 -7 8 -18 14 -24 13 -14 -3
-79 32 -73 39 3 3 20 -5 36 -17 17 -12 31 -19 31 -16 0 10 -73 55 -81 50 -10
-6 -169 104 -169 116 0 15 -163 113 -325 195 -322 164 -665 281 -1000 340
-143 25 -181 35 -139 35 16 0 17 2 4 10 -8 5 -31 9 -50 9 l-35 -1 30 -8 c28
-7 27 -8 -12 -9 -24 0 -43 4 -43 10 0 5 5 7 10 4 6 -3 10 -1 10 4 0 6 21 12
48 12 l47 2 -50 7 c-27 5 -63 9 -79 9 -26 1 -28 -1 -21 -26z"/>
<path d="M6878 11453 c7 -3 16 -2 19 1 4 3 -2 6 -13 5 -11 0 -14 -3 -6 -6z"/>
<path d="M5735 11329 c-541 -100 -991 -284 -1444 -589 -361 -242 -697 -590
-971 -1005 -116 -175 -261 -469 -326 -659 -38 -109 -22 -87 26 37 64 165 222
473 308 601 108 160 261 362 356 469 239 267 569 527 907 714 365 202 756 339
1168 409 80 13 146 26 148 28 2 2 -2 8 -9 13 -9 6 -62 1 -163 -18z"/>
<path d="M6680 11265 c0 -11 5 -27 10 -35 8 -12 10 -12 10 5 0 11 -5 27 -10
35 -8 12 -10 12 -10 -5z"/>
<path d="M6682 11150 c0 -19 2 -27 5 -17 2 9 2 25 0 35 -3 9 -5 1 -5 -18z"/>
<path d="M6220 11073 c-70 -11 -72 -12 -68 -44 3 -16 1 -32 -2 -34 -4 -3 -70
-12 -146 -20 -131 -15 -206 -28 -417 -76 -160 -36 -473 -152 -648 -240 -120
-60 -149 -71 -149 -60 0 5 12 12 26 15 14 4 39 20 55 37 16 16 34 27 40 24 5
-4 60 18 122 48 62 31 126 59 142 63 16 4 44 18 63 31 19 12 47 23 62 23 14 0
46 6 71 13 160 49 204 64 286 93 51 19 105 34 120 34 16 0 37 6 48 14 11 7 34
18 50 24 86 30 -137 -5 -330 -52 -299 -74 -623 -208 -911 -377 -254 -149 -537
-383 -744 -613 -474 -529 -769 -1191 -830 -1861 -14 -157 -13 -258 3 -253 8 3
15 38 20 99 59 718 277 1278 718 1849 87 112 320 354 438 453 47 39 95 80 105
90 11 9 38 26 61 37 23 11 52 31 65 45 33 35 277 157 286 143 4 -7 3 -8 -4 -4
-7 4 -12 3 -12 -2 0 -5 -64 -51 -142 -102 -79 -51 -192 -132 -253 -179 -133
-104 -377 -344 -510 -501 -109 -129 -267 -362 -331 -489 -24 -45 -49 -90 -57
-100 -52 -58 -177 -383 -231 -596 -76 -304 -128 -667 -105 -734 7 -21 7 -36
-1 -50 -14 -26 -26 -27 -33 -1 -3 11 -10 20 -16 20 -20 0 -11 -228 15 -410 14
-90 19 -9 10 150 -8 147 -6 183 9 168 7 -6 22 -133 35 -288 10 -123 50 -347
85 -475 14 -49 54 -177 90 -284 36 -107 64 -196 62 -198 -7 -6 -135 303 -168
407 -38 120 -51 112 -19 -12 55 -212 222 -589 355 -798 151 -238 317 -443 516
-635 273 -264 547 -455 885 -617 99 -47 128 -57 154 -52 27 6 31 4 28 -11 -2
-15 17 -25 102 -57 158 -57 370 -116 505 -140 66 -11 129 -24 140 -29 11 -5
83 -16 160 -25 271 -30 268 -30 246 5 -6 9 -6 22 1 34 9 17 12 18 25 4 12 -11
12 -19 4 -35 -6 -11 -11 -24 -11 -28 0 -18 344 11 610 52 642 97 1315 445
1790 925 69 69 157 163 195 209 39 47 86 100 105 119 19 19 29 31 21 27 -8 -6
-7 0 4 18 17 26 33 37 19 14 -4 -7 -3 -9 1 -5 5 4 10 14 11 22 4 26 45 75 57
69 7 -4 9 -4 6 0 -4 4 3 18 15 30 54 59 232 405 309 601 154 393 205 641 207
1006 l1 175 -31 32 c-32 34 -37 51 -19 69 9 9 9 42 0 131 -6 66 -11 142 -10
169 1 45 2 43 15 -31 8 -43 18 -115 23 -160 8 -74 8 -76 10 -26 2 97 -18 284
-44 421 -87 452 -242 845 -471 1192 -76 116 -106 153 -90 111 4 -11 1 -14 -13
-9 -10 3 -30 1 -44 -4 -22 -9 -25 -7 -30 16 -3 15 1 49 8 75 l12 49 -107 122
c-118 134 -188 203 -328 325 -84 73 -95 80 -118 72 -32 -13 -40 -8 -64 39 -46
91 -442 332 -740 451 -336 135 -674 217 -837 203 -67 -5 -71 -7 -53 -20 11 -8
51 -20 88 -28 90 -18 66 -18 -113 0 -82 8 -184 17 -226 20 l-77 6 24 24 c13
13 24 28 24 33 0 16 -124 23 -135 8 -8 -11 -12 -11 -23 0 -7 8 -16 13 -20 13
-4 -1 -18 -3 -32 -6z m677 -119 c-3 -3 -12 -4 -19 -1 -8 3 -5 6 6 6 11 1 17
-2 13 -5z m96 -21 c-7 -2 -19 -2 -25 0 -7 3 -2 5 12 5 14 0 19 -2 13 -5z m44
-9 c-3 -3 -12 -4 -19 -1 -8 3 -5 6 6 6 11 1 17 -2 13 -5z m165 -38 c224 -65
435 -148 643 -253 106 -54 382 -220 392 -236 4 -7 -4 -5 -17 4 -234 152 -464
269 -730 374 -76 30 -182 64 -380 124 -36 10 -56 19 -45 20 11 0 73 -15 137
-33z m-121 -115 c35 -36 38 -81 9 -129 l-20 -33 39 -72 c38 -67 42 -71 76 -73
42 -1 83 -21 90 -44 5 -15 26 -18 153 -23 156 -7 291 -29 410 -69 l72 -24 15
23 c64 97 225 46 225 -71 0 -27 -7 -52 -19 -67 l-19 -24 70 -115 c79 -130 91
-146 127 -163 14 -7 34 -29 44 -50 11 -22 53 -66 100 -106 80 -67 170 -157
215 -215 18 -24 24 -26 37 -16 10 9 32 11 67 7 33 -4 57 -2 66 5 11 10 13 8
11 -7 -1 -11 5 -37 15 -57 20 -46 20 -52 0 -108 l-16 -45 85 -113 c47 -63 114
-165 149 -228 60 -108 64 -113 96 -114 77 -1 129 -59 119 -134 -6 -39 -43 -86
-78 -98 -10 -3 -10 -20 -1 -89 16 -116 15 -286 -3 -394 -9 -49 -19 -112 -24
-139 -8 -46 -7 -51 16 -69 14 -11 29 -29 34 -41 8 -17 8 -15 3 9 l-5 29 23
-19 c13 -11 27 -26 31 -32 4 -7 20 -13 34 -13 l26 0 -6 143 c-3 90 -2 124 3
92 15 -89 22 -377 11 -475 l-10 -95 4 130 c4 163 1 185 -32 185 -13 0 -33 -5
-44 -10 -13 -7 -19 -7 -19 0 0 22 -16 8 -39 -35 -31 -59 -74 -75 -129 -48 -28
13 -40 28 -51 59 -17 50 -10 84 28 119 l28 27 -13 62 c-54 260 -247 499 -430
531 -21 4 -44 11 -50 16 -34 27 -234 21 -234 -7 0 -46 -58 -118 -107 -135 -77
-25 -166 29 -179 109 -6 39 -9 42 -39 42 -18 0 -45 4 -61 9 -16 5 -52 11 -81
14 -46 3 -53 1 -64 -19 -6 -13 -28 -31 -47 -40 -93 -44 -185 57 -136 150 15
29 14 31 -37 104 -53 76 -116 211 -144 306 l-16 55 -49 -6 c-42 -5 -51 -3 -73
19 -33 33 -52 96 -43 144 15 75 110 134 172 106 26 -13 18 -21 121 124 l50 70
-23 28 c-24 27 -27 39 -28 111 l-1 40 -115 58 c-91 46 -122 58 -147 54 -21 -4
-36 -1 -44 9 -7 9 -26 22 -42 31 -42 21 -238 61 -338 68 -46 4 -94 8 -106 11
-17 3 -23 0 -23 -14 0 -9 -13 -32 -29 -50 -24 -26 -37 -32 -71 -32 -60 0 -94
21 -108 68 -14 47 -15 82 -3 101 7 10 1 20 -19 35 -40 29 -209 168 -243 200
l-28 26 -18 -21 c-12 -15 -32 -23 -67 -26 -45 -4 -52 -2 -88 29 l-40 35 -85
-48 -86 -47 -6 -47 c-14 -118 -159 -128 -190 -13 -13 48 2 83 50 115 36 24 66
23 107 -4 20 -13 30 -10 107 28 l85 42 4 59 c5 62 26 96 80 124 65 34 162 -4
188 -72 8 -20 13 -21 57 -13 26 5 100 14 164 19 65 5 125 13 135 19 11 6 37
18 59 26 22 9 73 36 113 61 l72 45 0 45 c0 63 40 104 100 104 33 0 48 -6 71
-29z m-1721 -135 c0 -2 -27 -14 -61 -26 -40 -16 -57 -26 -50 -33 7 -7 2 -20
-14 -39 -14 -16 -25 -35 -25 -41 0 -7 -14 -30 -30 -51 -17 -22 -30 -46 -30
-53 0 -7 -4 -13 -9 -13 -5 0 -12 -12 -16 -27 -4 -16 -15 -36 -26 -46 -10 -10
-37 -55 -60 -100 -22 -45 -47 -89 -55 -98 -8 -8 -14 -20 -14 -26 0 -6 -3 -13
-8 -15 -16 -7 -100 -196 -98 -219 2 -15 22 -43 47 -66 l44 -41 -50 -7 c-28 -3
-57 -8 -65 -10 -8 -1 488 -3 1104 -4 615 0 1120 -1 1121 -3 7 -9 -17 -174 -26
-182 -9 -8 -10 -6 -6 7 4 10 3 16 -1 13 -13 -8 -44 22 -37 36 16 30 -81 -81
-245 -282 -96 -117 -185 -225 -197 -239 l-21 -26 -788 -1 c-433 -1 -805 -5
-827 -8 -65 -11 -142 -53 -191 -106 -82 -88 -114 -192 -96 -318 14 -104 43
-164 106 -221 94 -86 79 -84 659 -92 561 -7 580 -9 756 -77 271 -104 499 -380
560 -676 17 -85 19 -148 18 -941 l-1 -850 -171 -161 c-155 -146 -411 -377
-495 -446 -29 -24 -32 -32 -34 -90 -2 -35 -5 470 -8 1122 l-5 1185 -28 57
c-33 68 -90 121 -166 157 l-56 26 -505 6 c-340 4 -521 10 -555 18 -341 83
-589 291 -716 602 -34 81 -64 220 -75 342 -5 62 -10 77 -21 73 -8 -4 -18 -6
-22 -6 -5 0 -21 -19 -37 -42 -33 -50 -73 -88 -91 -88 -7 0 -13 -4 -13 -10 0
-13 -63 -80 -75 -80 -6 0 -19 -11 -29 -25 -10 -14 -26 -25 -34 -25 -8 0 -13
-3 -10 -6 7 -6 -39 -54 -52 -54 -6 0 -10 -5 -10 -10 0 -6 -10 -15 -22 -21 -13
-5 -33 -25 -45 -44 -27 -41 -62 -39 -64 4 -2 37 -8 9 -24 -106 -7 -54 -13 -82
-14 -61 -2 56 28 271 54 393 154 716 564 1347 1150 1767 191 137 468 286 685
368 103 39 120 44 120 36z m3977 -2478 c-3 -8 -6 -5 -6 6 -1 11 2 17 5 13 3
-3 4 -12 1 -19z m-727 -61 c0 -51 6 -84 18 -108 18 -35 18 -37 0 -70 -17 -32
-18 -86 -18 -1015 l0 -982 -122 -117 c-68 -65 -181 -161 -253 -215 -129 -96
-309 -220 -320 -220 -3 0 -5 298 -5 663 l2 662 -254 -3 c-139 -1 -371 0 -515
4 l-263 6 0 315 c0 186 -4 322 -10 333 -7 13 -6 21 5 30 8 7 15 19 15 26 0 19
7 18 37 -6 25 -19 41 -20 504 -20 l479 0 0 395 0 395 350 0 350 0 0 -73z
m1005 -445 c-9 -165 -26 -337 -41 -422 -24 -134 -92 -383 -141 -515 -45 -121
-68 -166 -54 -104 11 44 86 291 106 348 40 113 87 415 110 708 9 110 26 96 20
-15z m-5165 -31 c19 -11 30 -21 25 -21 -12 0 -125 69 -125 77 0 2 15 -4 33
-15 17 -11 48 -29 67 -41z m4897 -168 c-3 -10 -5 -2 -5 17 0 19 2 27 5 18 2
-10 2 -26 0 -35z m-10 -85 c-3 -7 -5 -2 -5 12 0 14 2 19 5 13 2 -7 2 -19 0
-25z m-10 -60 c-3 -7 -5 -2 -5 12 0 14 2 19 5 13 2 -7 2 -19 0 -25z m-5751
-22 c27 -27 34 -42 34 -72 -1 -48 -20 -84 -52 -98 l-26 -11 20 -95 c27 -134
89 -313 164 -469 55 -115 66 -133 78 -120 12 12 396 505 421 540 8 12 137 14
818 11 l807 -2 -1 -93 c-1 -50 -4 -82 -6 -69 -5 26 -18 29 -27 6 -9 -25 -7
-242 3 -248 11 -7 20 25 23 79 1 22 5 -45 8 -150 3 -104 4 -193 2 -197 -2 -5
-478 -8 -1058 -8 l-1054 0 6 -57 c5 -37 4 -54 -3 -50 -6 4 -13 34 -17 68 -6
58 -4 63 24 99 17 21 26 40 21 42 -15 5 -131 247 -168 348 -31 86 -70 235 -87
333 -5 27 -12 37 -26 37 -49 0 -80 41 -80 106 0 51 53 104 105 104 29 0 45 -8
71 -34z m-182 -832 c3 -8 2 -12 -4 -9 -6 3 -10 10 -10 16 0 14 7 11 14 -7z
m556 -329 c7 4 43 -40 45 -55 1 -11 24 -44 25 -35 0 5 56 -46 124 -114 l124
-124 35 16 c19 10 45 17 57 17 36 0 86 -29 101 -58 7 -15 14 -28 15 -30 1 -2
423 83 562 113 14 4 22 13 22 26 0 57 66 119 128 119 78 0 128 -58 119 -139
-3 -25 -10 -47 -17 -49 -6 -2 19 -37 57 -76 147 -156 183 -196 183 -202 0 -4
24 -48 54 -98 30 -50 67 -117 82 -148 25 -51 32 -58 57 -58 82 0 133 -96 84
-157 -13 -18 2 -34 96 -105 105 -78 154 -90 387 -91 201 0 260 7 260 31 0 28
37 80 69 97 65 33 149 5 177 -60 19 -45 17 -71 -6 -123 -24 -52 -72 -77 -135
-69 -44 6 -95 52 -95 87 0 18 -4 19 -42 13 -72 -13 -398 -10 -406 4 -5 8 -30
10 -77 8 l-70 -4 -97 90 c-53 49 -99 85 -103 79 -17 -27 -118 2 -129 37 -5 16
-20 18 -128 18 -68 1 -151 4 -185 9 -57 7 -62 6 -68 -13 -3 -12 -23 -32 -43
-46 -96 -65 -208 3 -201 121 l3 45 -81 44 c-156 83 -289 176 -425 297 -42 38
-79 64 -82 59 -4 -5 -22 -15 -41 -21 -30 -10 -41 -9 -79 9 -23 12 -48 33 -54
47 -14 29 -15 93 -3 113 6 9 -22 43 -99 120 -102 101 -250 276 -250 295 0 5 9
-3 21 -18 11 -14 24 -24 29 -21z m3947 -852 c-3 -10 -5 -4 -5 12 0 17 2 24 5
18 2 -7 2 -21 0 -30z"/>
<path d="M6845 10573 c-44 -29 -81 -58 -83 -63 -4 -10 11 -14 188 -56 63 -14
122 -30 130 -35 9 -4 21 -2 31 7 16 14 14 21 -25 92 l-43 76 -41 -2 c-33 -3
-44 1 -54 17 -7 12 -15 20 -18 20 -3 -1 -41 -26 -85 -56z"/>
<path d="M6485 10459 c-153 -19 -155 -20 -171 -64 -10 -31 -11 -42 -1 -52 7
-6 70 -59 141 -117 128 -104 129 -105 157 -91 60 32 128 7 156 -56 l16 -36
106 -7 c91 -5 303 -42 351 -60 33 -13 42 7 26 65 -38 142 -67 221 -82 215 -43
-17 -94 42 -94 108 0 29 -3 34 -17 29 -11 -4 -14 -3 -9 5 4 8 2 10 -7 6 -20
-7 -97 14 -97 28 0 5 -9 8 -20 5 -11 -3 -18 -1 -14 4 5 9 1 10 -76 14 -198 11
-305 12 -365 4z"/>
<path d="M7313 10363 c-26 -3 -33 -9 -33 -26 0 -11 -12 -34 -27 -49 l-27 -28
43 -129 c23 -71 53 -143 66 -161 16 -22 62 -51 149 -94 l126 -62 27 28 c34 35
84 52 140 45 l45 -5 59 122 c32 66 57 127 54 134 -3 7 0 10 5 7 6 -3 10 -2 10
4 0 5 -6 14 -14 18 -17 11 -36 47 -36 71 0 20 -14 28 -105 56 -124 39 -407 79
-482 69z"/>
<path d="M8022 10133 l-42 -4 -46 -97 c-83 -176 -81 -167 -46 -206 43 -50 53
-142 20 -184 -8 -9 17 -38 97 -115 111 -105 199 -214 263 -325 36 -62 38 -63
72 -57 24 4 47 0 74 -14 l39 -20 98 90 c54 50 100 96 102 102 2 6 -3 30 -11
55 -13 39 -13 47 2 79 l17 35 -61 68 c-81 92 -233 220 -259 220 -7 0 -11 -29
-11 -77 0 -43 -3 -89 -6 -103 -4 -17 -3 -21 4 -12 6 9 11 -6 16 -49 7 -68 8
-235 2 -228 -9 9 -29 209 -30 301 0 55 -5 98 -11 98 -5 -1 -15 30 -23 67 -7
37 -17 70 -21 73 -5 3 -8 12 -8 21 0 9 -25 54 -55 100 -30 46 -68 108 -83 137
-15 28 -32 51 -39 50 -6 -1 -30 -3 -54 -5z m43 -13 c-3 -5 -21 -9 -38 -9 l-32
2 35 7 c19 4 36 8 38 9 2 0 0 -3 -3 -9z m242 -472 c-3 -8 -6 -5 -6 6 -1 11 2
17 5 13 3 -3 4 -12 1 -19z m57 -473 c3 -8 1 -15 -4 -15 -6 0 -10 7 -10 15 0 8
2 15 4 15 2 0 6 -7 10 -15z"/>
<path d="M7841 9572 c-44 -33 -129 -43 -155 -17 -10 10 -21 14 -25 9 -22 -25
-131 -182 -131 -188 0 -4 9 -19 20 -33 25 -32 27 -104 3 -144 -10 -16 -20 -29
-23 -29 -3 0 -13 -7 -22 -14 -17 -12 -16 -17 6 -82 29 -85 84 -197 142 -287
41 -62 46 -67 65 -56 48 25 139 -33 139 -89 0 -23 57 -41 160 -49 l65 -5 15
34 c20 43 73 78 119 78 l37 0 22 84 c25 97 28 138 9 130 -18 -6 -47 58 -47
104 0 20 8 50 18 67 18 30 18 30 -11 79 -62 106 -126 186 -247 308 l-126 126
-33 -26z"/>
<path d="M8577 9185 l-108 -104 11 -39 c18 -71 -33 -152 -97 -152 -39 0 -45
-9 -73 -118 l-21 -83 30 -25 c17 -14 33 -33 36 -43 5 -17 18 -18 166 -16 139
2 161 0 172 -14 7 -9 47 -38 91 -64 78 -47 84 -48 150 -30 16 4 17 1 12 -33
-6 -33 -2 -48 27 -94 47 -77 52 -88 80 -155 22 -53 53 -155 71 -237 7 -32 21
-36 31 -10 31 82 51 438 32 573 -7 51 -11 57 -35 62 -41 8 -78 48 -86 91 -6
30 -2 49 17 87 l24 48 -32 58 c-37 69 -146 237 -201 310 -21 28 -44 60 -50 70
-11 17 -13 17 -48 1 -47 -23 -62 -23 -69 2 -3 11 -9 20 -14 20 -4 -1 -57 -48
-116 -105z"/>
<path d="M4788 9713 c6 -2 18 -2 25 0 6 3 1 5 -13 5 -14 0 -19 -2 -12 -5z"/>
<path d="M6105 9690 c-38 -4 119 -7 350 -7 231 -1 409 3 395 7 -29 9 -643 9
-745 0z"/>
<path d="M6890 9520 c-23 -27 -40 -50 -37 -50 3 0 24 23 47 50 23 28 40 50 37
50 -3 0 -24 -22 -47 -50z"/>
<path d="M6824 9438 l-19 -23 23 19 c21 18 27 26 19 26 -2 0 -12 -10 -23 -22z"/>
<path d="M6759 9358 c-24 -29 -36 -47 -26 -39 20 16 81 91 74 91 -3 0 -25 -24
-48 -52z"/>
<path d="M6749 9383 c-13 -16 -12 -17 4 -4 9 7 17 15 17 17 0 8 -8 3 -21 -13z"/>
<path d="M6704 9328 l-19 -23 23 19 c21 18 27 26 19 26 -2 0 -12 -10 -23 -22z"/>
<path d="M6684 9268 l-19 -23 23 19 c21 18 27 26 19 26 -2 0 -12 -10 -23 -22z"/>
<path d="M6630 9240 c-17 -22 -29 -40 -27 -40 3 0 20 18 37 40 17 22 29 40 27
40 -3 0 -20 -18 -37 -40z"/>
<path d="M6639 9213 c-13 -16 -12 -17 4 -4 16 13 21 21 13 21 -2 0 -10 -8 -17
-17z"/>
<path d="M4045 9166 c-64 -98 -115 -274 -114 -395 l0 -86 13 42 c8 23 17 64
20 90 14 96 46 206 84 287 29 61 35 83 25 83 -8 0 -21 -10 -28 -21z"/>
<path d="M6599 9163 l-24 -28 28 24 c15 14 27 26 27 28 0 8 -8 1 -31 -24z"/>
<path d="M6552 9147 c-34 -35 -39 -51 -20 -63 7 -4 8 -3 4 5 -4 6 6 29 24 51
38 49 35 51 -8 7z"/>
<path d="M5645 9089 c256 -27 875 -41 875 -21 0 30 -28 32 -490 31 -312 -1
-439 -5 -385 -10z"/>
<path d="M4727 8989 c-29 -26 -45 -47 -36 -45 13 1 102 56 141 86 4 3 -7 5
-23 6 -23 1 -43 -10 -82 -47z m3 -13 c0 -2 -8 -10 -17 -17 -16 -13 -17 -12 -4
4 13 16 21 21 21 13z"/>
<path d="M4601 8756 c-13 -54 -15 -153 -2 -160 7 -5 22 190 15 202 -1 1 -7
-17 -13 -42z"/>
<path d="M4625 8508 c-18 -46 146 -227 185 -203 5 3 10 1 10 -5 0 -6 5 -8 11
-4 8 4 -1 14 -22 25 -55 28 -117 90 -148 149 -22 40 -32 50 -36 38z"/>
<path d="M3956 8417 c8 -74 32 -156 63 -223 33 -71 120 -202 147 -224 18 -14
18 -14 4 4 -14 18 -13 19 3 13 10 -4 -3 23 -37 71 -70 101 -101 163 -148 297
-31 90 -37 101 -32 62z"/>
<path d="M4846 8291 c-16 -25 81 -31 503 -31 239 0 431 3 427 8 -4 4 -204 10
-444 13 -240 3 -447 9 -458 13 -13 5 -24 3 -28 -3z"/>
<path d="M4225 7905 c131 -123 282 -203 485 -256 30 -8 210 -14 550 -18 l505
-6 67 -33 c86 -42 157 -118 181 -194 12 -39 17 -88 17 -169 0 -172 12 -369 22
-369 5 0 8 110 6 263 l-3 263 -33 66 c-40 81 -110 148 -190 180 -56 22 -67 23
-552 29 -407 5 -508 9 -567 22 -86 20 -183 51 -232 76 -20 10 -42 16 -50 13
-9 -3 -11 0 -6 8 5 9 4 11 -3 6 -6 -4 -24 0 -40 8 -42 22 -135 97 -128 103 3
4 14 0 24 -8 10 -8 5 -1 -10 14 -16 15 -33 25 -39 21 -5 -3 -18 0 -27 6 -9 7
1 -5 23 -25z"/>
<path d="M6688 6882 c2 -345 7 -694 11 -777 5 -99 8 110 7 610 -1 487 -5 766
-11 777 -7 11 -9 -189 -7 -610z"/>
<path d="M6389 6617 c-19 -5 -44 -10 -57 -11 -12 -1 -28 -8 -34 -14 -7 -7 -16
-12 -20 -12 -5 0 -21 -11 -36 -25 -15 -14 -23 -25 -19 -25 4 0 -1 -10 -13 -22
-11 -12 -29 -47 -41 -77 -11 -31 -24 -60 -29 -66 -4 -5 -13 -37 -20 -70 -10
-47 -14 -56 -21 -40 -4 11 -8 -170 -8 -403 -1 -277 2 -421 9 -417 5 3 17 -10
27 -29 19 -41 33 -45 51 -16 6 11 30 29 52 40 22 11 40 24 40 29 0 5 19 21 42
36 45 30 127 110 166 164 13 17 29 31 36 31 22 0 106 122 107 155 0 16 6 57
13 90 12 52 14 56 18 30 3 -16 5 116 4 295 0 205 -2 281 -6 205 -3 -66 -7
-100 -8 -76 -3 64 -22 120 -49 141 -13 10 -23 22 -23 27 0 5 -13 21 -28 36
-31 30 -91 39 -153 24z"/>
<path d="M6035 6159 c-10 -30 6 -409 16 -384 11 29 11 405 0 405 -5 0 -13 -9
-16 -21z"/>
<path d="M6675 5756 c-16 -8 -39 -23 -50 -36 -27 -30 -279 -266 -437 -409 -70
-63 -129 -123 -132 -134 -4 -18 -2 -17 22 5 15 13 88 78 162 143 201 177 474
434 468 441 -2 1 -16 -3 -33 -10z"/>
<path d="M6043 5530 c0 -25 2 -35 4 -22 2 12 2 32 0 45 -2 12 -4 2 -4 -23z"/>
<path d="M8103 8151 c-112 -14 -56 -21 160 -21 125 0 227 4 227 8 0 18 -276
26 -387 13z"/>
<path d="M7936 8030 c-4 -14 -5 -171 -4 -350 l3 -325 -371 3 c-222 1 -381 -1
-395 -7 -16 -7 112 -9 381 -8 l405 2 3 330 c2 199 0 340 -6 355 l-10 25 -6
-25z"/>
<path d="M7049 7262 c-36 -3 -36 -4 -27 -30 8 -20 7 -39 -5 -72 -13 -38 -13
-49 -1 -71 7 -14 13 -35 13 -45 -2 -56 10 -106 27 -119 22 -17 38 -19 29 -5
-3 6 3 10 14 10 11 0 23 5 26 10 4 6 21 10 38 8 18 -1 42 4 54 10 26 14 44 16
23 2 -9 -6 -10 -10 -3 -10 6 0 19 7 28 16 12 13 13 19 4 30 -9 11 -8 14 7 13
11 -1 28 -1 39 0 17 1 18 3 5 11 -12 8 -11 10 6 10 12 0 24 7 27 14 4 10 1 13
-9 9 -7 -3 -14 0 -14 6 0 6 5 11 10 11 6 0 10 7 10 15 0 7 8 19 18 24 9 6 13
11 9 11 -4 0 -3 8 2 18 13 25 -30 71 -93 101 -49 22 -139 31 -237 23z"/>
<path d="M6907 7185 c-11 -27 -7 -439 5 -427 4 4 7 107 6 228 -2 124 -7 210
-11 199z"/>
<path d="M8582 7175 c0 -16 2 -22 5 -12 2 9 2 23 0 30 -3 6 -5 -1 -5 -18z"/>
<path d="M7363 7085 c0 -8 4 -15 9 -15 4 0 8 7 8 15 0 8 -4 15 -8 15 -5 0 -9
-7 -9 -15z"/>
<path d="M8270 6910 c0 -7 -21 -10 -55 -9 -51 2 -58 0 -85 -29 -16 -18 -33
-32 -37 -32 -4 0 -20 -11 -35 -24 -20 -18 -29 -38 -34 -77 -4 -30 -13 -59 -20
-66 -10 -11 -14 -5 -17 29 -2 24 -3 -184 -3 -462 0 -278 3 -462 6 -410 l6 95
2 -82 c1 -46 6 -83 10 -83 5 0 16 -17 25 -37 28 -65 46 -69 126 -28 39 19 78
47 88 62 10 15 53 61 96 103 63 61 82 87 103 140 23 60 25 79 26 230 1 171 -7
312 -23 390 -6 25 -29 89 -52 142 -31 71 -47 97 -60 98 -10 0 -16 4 -13 8 3 5
-8 19 -24 31 -17 12 -30 17 -30 11z m-273 -422 c-2 -18 -4 -4 -4 32 0 36 2 50
4 33 2 -18 2 -48 0 -65z"/>
<path d="M6928 6739 c-31 -18 -19 -29 25 -23 46 6 75 24 40 24 -12 0 -27 2
-35 5 -7 2 -21 0 -30 -6z"/>
<path d="M7655 6741 c-120 -9 -68 -21 118 -28 l157 -6 0 -556 c0 -344 4 -562
10 -571 6 -10 9 189 7 575 l-2 590 -105 1 c-58 0 -141 -2 -185 -5z"/>
<path d="M8525 5880 c-10 -11 -21 -18 -25 -15 -9 5 -82 -69 -75 -77 8 -8 -86
-89 -96 -83 -4 3 -34 -16 -66 -43 -65 -53 -209 -156 -262 -187 -18 -11 -38
-30 -42 -43 -10 -27 -15 -30 101 51 180 125 309 229 400 321 52 53 92 96 89
96 -3 0 -14 -9 -24 -20z"/>
<path d="M4900 6951 l-95 -6 94 -7 c131 -11 849 -10 855 1 3 4 -18 11 -47 15
-61 7 -669 5 -807 -3z"/>
<path d="M4294 6819 c5 -29 2 -43 -11 -57 -72 -77 -103 -114 -105 -124 -6 -52
-1 -104 12 -115 21 -18 95 -16 110 2 7 9 21 13 35 9 13 -3 28 1 36 9 8 7 20
12 27 9 6 -2 12 1 12 7 0 6 11 11 25 11 16 0 31 10 42 28 22 34 33 42 51 34 9
-3 13 0 10 8 -2 7 9 26 24 42 16 16 26 33 23 39 -4 5 3 9 14 9 24 0 27 10 9
28 -9 9 -5 12 20 12 27 0 31 3 29 23 -1 12 -10 28 -19 35 -32 24 -156 34 -223
19 -33 -8 -58 -8 -87 0 l-40 11 6 -39z"/>
<path d="M5665 6341 c-121 -7 -100 -17 50 -26 l110 -6 -24 20 c-13 12 -26 20
-30 19 -3 -1 -51 -4 -106 -7z"/>
<path d="M4885 5795 c-88 -19 -205 -43 -260 -55 -55 -11 -110 -23 -122 -26
-15 -3 -23 -12 -23 -25 0 -11 -5 -30 -11 -41 -12 -23 -17 -19 126 -132 106
-83 250 -182 353 -241 l83 -47 24 25 c14 13 38 27 54 30 37 8 39 19 47 267 l7
195 -26 12 c-14 7 -36 26 -48 42 -13 17 -28 31 -33 30 -6 0 -83 -16 -171 -34z"/>
<path d="M5246 5765 c-11 -8 -27 -15 -36 -15 -15 0 -18 -19 -23 -142 -4 -79
-10 -185 -14 -235 -5 -84 -4 -93 12 -93 9 0 32 -15 51 -34 27 -27 34 -42 34
-74 0 -33 4 -41 23 -45 47 -12 207 -19 271 -13 64 7 66 9 66 35 0 15 9 36 20
46 20 18 19 19 -26 104 -52 100 -216 328 -301 419 -54 58 -59 61 -77 47z"/>
<path d="M3999 10803 c-13 -16 -12 -17 4 -4 16 13 21 21 13 21 -2 0 -10 -8
-17 -17z"/>
<path d="M3949 10763 c-13 -16 -12 -17 4 -4 16 13 21 21 13 21 -2 0 -10 -8
-17 -17z"/>
<path d="M3894 10718 l-19 -23 23 19 c12 11 22 21 22 23 0 8 -8 2 -26 -19z"/>
<path d="M3819 10653 l-34 -38 38 34 c20 19 37 36 37 38 0 8 -8 0 -41 -34z"/>
<path d="M3614 10458 c-168 -172 -302 -336 -421 -513 -105 -159 -243 -395
-229 -395 2 0 32 51 66 112 108 192 306 474 442 631 40 45 124 135 187 200 63
64 112 117 109 117 -3 0 -72 -69 -154 -152z"/>
<path d="M8860 10555 c30 -30 57 -55 59 -55 3 0 -19 25 -49 55 -30 30 -57 55
-59 55 -3 0 19 -25 49 -55z"/>
<path d="M8615 10500 c10 -11 20 -20 23 -20 3 0 -3 9 -13 20 -10 11 -20 20
-23 20 -3 0 3 -9 13 -20z"/>
<path d="M9029 10392 c57 -62 109 -115 115 -119 14 -9 -165 186 -195 212 -13
11 23 -31 80 -93z"/>
<path d="M8553 10324 c9 -11 14 -24 10 -28 -5 -4 -3 -6 3 -4 15 4 123 -110
174 -183 21 -31 59 -74 84 -96 26 -22 46 -44 46 -47 0 -8 72 -87 143 -157 26
-26 47 -50 47 -54 0 -13 33 -79 60 -120 166 -253 371 -716 448 -1014 11 -45
21 -67 25 -57 12 29 -52 244 -129 439 -88 220 -93 235 -65 187 11 -19 41 -88
67 -153 26 -65 49 -116 51 -113 8 8 -85 232 -156 373 -136 272 -385 624 -581
823 -103 105 -271 255 -227 204z"/>
<path d="M9180 10225 c13 -14 26 -25 28 -25 3 0 -5 11 -18 25 -13 14 -26 25
-28 25 -3 0 5 -11 18 -25z"/>
<path d="M3454 10218 l-19 -23 23 19 c21 18 27 26 19 26 -2 0 -12 -10 -23 -22z"/>
<path d="M8950 10175 c19 -19 36 -35 39 -35 3 0 -10 16 -29 35 -19 19 -36 35
-39 35 -3 0 10 -16 29 -35z"/>
<path d="M9210 10186 c0 -2 8 -10 18 -17 15 -13 16 -12 3 4 -13 16 -21 21 -21
13z"/>
<path d="M3357 10098 c-112 -146 -143 -190 -220 -319 -85 -141 -177 -311 -177
-325 0 -5 23 33 50 84 52 98 150 262 157 262 2 0 -6 -18 -17 -41 -14 -26 -18
-45 -12 -52 10 -14 9 -78 -2 -96 -5 -7 -1 -18 10 -26 27 -20 32 -19 49 15 10
19 11 30 5 30 -6 0 -8 5 -4 11 5 8 10 6 16 -5 7 -12 3 -27 -12 -53 -11 -19
-19 -37 -16 -40 2 -2 23 30 46 71 22 42 69 115 103 163 35 49 74 104 87 124
14 20 53 74 88 120 35 46 49 69 33 51 -17 -18 -31 -28 -31 -22 0 5 -7 10 -15
10 -8 0 -15 4 -15 10 0 5 -17 9 -37 8 -21 -1 -45 1 -53 5 -12 6 -29 -10 -64
-58 -26 -36 -50 -65 -52 -65 -8 0 4 18 83 123 41 53 72 97 69 97 -3 0 -34 -37
-69 -82z"/>
<path d="M9260 10126 c0 -2 8 -10 18 -17 15 -13 16 -12 3 4 -13 16 -21 21 -21
13z"/>
<path d="M9020 10095 c13 -14 26 -25 28 -25 3 0 -5 11 -18 25 -13 14 -26 25
-28 25 -3 0 5 -11 18 -25z"/>
<path d="M9070 10035 c13 -14 26 -25 28 -25 3 0 -5 11 -18 25 -13 14 -26 25
-28 25 -3 0 5 -11 18 -25z"/>
<path d="M9100 9996 c0 -2 8 -10 18 -17 15 -13 16 -12 3 4 -13 16 -21 21 -21
13z"/>
<path d="M9180 9886 c0 -2 8 -10 18 -17 15 -13 16 -12 3 4 -13 16 -21 21 -21
13z"/>
<path d="M9271 9758 c23 -38 43 -68 45 -68 7 0 -39 78 -64 108 -12 15 -4 -3
19 -40z"/>
<path d="M9493 9795 c8 -21 89 -155 94 -155 5 0 -56 109 -80 141 -10 13 -16
20 -14 14z"/>
<path d="M9363 9608 c13 -24 41 -73 61 -110 38 -69 60 -95 30 -35 -32 63 -106
187 -111 187 -3 0 6 -19 20 -42z"/>
<path d="M9625 9560 c19 -38 38 -70 40 -70 3 0 -11 32 -30 70 -19 39 -38 70
-40 70 -3 0 11 -31 30 -70z"/>
<path d="M3120 9570 c0 -5 5 -10 10 -10 6 0 10 5 10 10 0 6 -4 10 -10 10 -5 0
-10 -4 -10 -10z"/>
<path d="M9681 9455 c0 -5 6 -21 14 -35 8 -14 14 -20 14 -15 0 6 -6 21 -14 35
-8 14 -14 21 -14 15z"/>
<path d="M9471 9415 c0 -5 22 -53 49 -105 27 -52 49 -90 49 -85 0 6 -22 53
-49 105 -27 52 -49 91 -49 85z"/>
<path d="M9666 9317 c3 -10 9 -15 12 -12 3 3 0 11 -7 18 -10 9 -11 8 -5 -6z"/>
<path d="M9681 9285 c0 -5 6 -21 14 -35 8 -14 14 -20 14 -15 0 6 -6 21 -14 35
-8 14 -14 21 -14 15z"/>
<path d="M9571 9205 c0 -5 6 -21 14 -35 8 -14 14 -20 14 -15 0 6 -6 21 -14 35
-8 14 -14 21 -14 15z"/>
<path d="M9750 9129 c0 -14 31 -81 36 -76 3 3 -4 22 -15 44 -11 21 -20 35 -21
32z"/>
<path d="M9801 9005 c1 -19 18 -51 18 -35 0 8 -4 22 -9 30 -5 8 -9 11 -9 5z"/>
<path d="M2901 8864 c0 -11 3 -14 6 -6 3 7 2 16 -1 19 -3 4 -6 -2 -5 -13z"/>
<path d="M9847 8855 c6 -32 11 -41 17 -34 2 2 -2 18 -10 34 l-13 30 6 -30z"/>
<path d="M2851 8694 c0 -11 3 -14 6 -6 3 7 2 16 -1 19 -3 4 -6 -2 -5 -13z"/>
<path d="M2813 8549 c-15 -67 -29 -115 -31 -106 -5 22 -36 10 -70 -28 l-30
-32 38 -12 c64 -19 66 -18 79 62 7 39 22 107 32 151 11 43 18 80 15 83 -2 3
-17 -50 -33 -118z"/>
<path d="M10001 8321 c-8 -6 -9 -11 -3 -15 6 -3 14 -1 17 5 9 14 2 20 -14 10z"/>
<path d="M9798 8278 c-8 -7 -18 -21 -21 -30 -9 -26 18 -11 31 18 13 27 12 29
-10 12z"/>
<path d="M2580 8106 c0 -3 10 -14 22 -26 l22 -20 -27 0 c-25 0 -27 -3 -27 -40
0 -36 3 -40 24 -40 14 0 27 4 31 9 3 5 19 12 36 16 30 7 30 7 12 28 -18 20
-17 20 2 12 11 -4 31 -8 45 -9 49 -2 105 -146 75 -190 l-15 -20 0 21 c0 11 -6
23 -14 26 -8 3 -16 16 -19 29 -4 21 -4 21 -6 -4 -1 -25 -2 -26 -37 -16 -20 5
-53 6 -73 2 -68 -14 -103 9 -101 66 3 54 2 57 -21 63 -12 3 -18 10 -14 16 9
15 -1 14 -35 -4 -31 -16 -63 -68 -74 -122 -8 -36 9 -110 31 -135 14 -16 18
-16 44 -2 21 11 34 12 48 4 11 -5 28 -10 38 -10 10 0 33 -17 50 -37 l33 -37
-34 -17 c-30 -14 -41 -15 -85 -3 -84 21 -80 16 -128 151 -10 28 -19 40 -29 36
-22 -8 -18 53 7 104 11 23 32 48 46 55 14 7 30 23 34 36 l9 23 -30 -21 c-64
-45 -106 -143 -96 -222 8 -58 37 -128 61 -148 16 -14 17 -13 10 9 l-7 24 28
-20 c69 -49 164 -67 231 -43 27 10 27 9 8 -6 -11 -8 -32 -18 -47 -21 -34 -7
-26 -33 11 -33 41 0 124 43 155 81 44 51 59 96 59 174 0 103 -44 181 -129 227
-45 24 -124 45 -124 34z m147 -443 c-10 -22 -13 -24 -15 -9 -2 10 2 22 10 27
19 12 19 12 5 -18z"/>
<path d="M10050 8083 c46 -22 120 -38 120 -25 0 9 -90 41 -130 46 l-45 6 55
-27z"/>
<path d="M9899 8075 c-86 -45 -138 -131 -139 -229 0 -76 16 -127 52 -168 l29
-33 -4 35 c-2 19 -8 43 -12 54 -4 10 12 -2 37 -26 78 -76 170 -88 278 -37 l65
30 -29 -30 c-17 -17 -25 -31 -20 -31 17 0 72 63 88 101 21 51 30 133 17 155
-10 18 -10 17 -11 -4 0 -12 -7 -25 -15 -28 -8 -4 -15 -14 -16 -23 0 -9 -5 -1
-10 17 -8 28 -12 32 -25 21 -21 -18 -160 -25 -179 -9 -10 9 -15 30 -14 69 2
90 9 105 54 112 38 6 37 6 -15 8 -37 1 -68 -5 -93 -18 -36 -18 -37 -18 -37 0
0 19 24 36 69 50 l26 7 -25 1 c-14 0 -46 -11 -71 -24z m-48 -152 c-12 -20 -14
-14 -5 12 4 9 9 14 11 11 3 -2 0 -13 -6 -23z m-11 -50 c0 -25 -4 -28 -35 -29
-27 0 -35 3 -35 18 0 13 8 18 30 18 17 0 30 5 30 10 0 6 2 10 5 10 3 0 5 -12
5 -27z m82 -105 c25 1 49 -2 53 -8 3 -5 15 -10 25 -10 11 0 36 -15 56 -32 l37
-33 -38 -16 c-32 -14 -44 -15 -84 -4 -71 19 -88 31 -111 81 -25 57 -26 92 -2
49 16 -28 21 -30 64 -27z"/>
<path d="M2450 7634 c0 -8 16 -22 35 -30 70 -29 91 -8 25 26 -47 24 -60 25
-60 4z"/>
<path d="M9891 7636 c-15 -18 11 -34 59 -38 45 -4 48 15 5 35 -43 21 -49 21
-64 3z"/>
<path d="M10070 7631 c-48 -20 -64 -41 -31 -41 33 0 101 31 101 46 0 18 -15
17 -70 -5z"/>
<path d="M9833 7437 c-42 -44 -51 -61 -57 -102 -44 -312 -150 -663 -286 -950
-410 -868 -1121 -1505 -2021 -1813 -191 -65 -301 -94 -539 -142 -85 -16 -159
-35 -165 -41 -5 -5 -11 -71 -13 -149 -3 -125 -2 -140 13 -140 24 0 275 40 310
49 23 6 14 8 -36 7 -37 -1 -65 -4 -62 -8 2 -5 -11 -8 -29 -9 -129 -2 -160 -6
-169 -20 -7 -9 -9 27 -6 115 4 90 9 132 18 140 8 7 72 20 143 30 630 87 1244
375 1796 842 30 26 20 14 -24 -27 -157 -148 -483 -370 -746 -508 -63 -33 -111
-61 -106 -61 5 0 54 21 110 46 307 140 640 373 914 638 86 83 267 284 336 374
27 34 51 62 53 62 5 0 -36 -58 -99 -139 -49 -63 -57 -78 -35 -65 6 4 4 -2 -5
-13 -10 -11 -18 -23 -18 -26 0 -11 34 -40 66 -58 29 -16 29 -16 67 25 49 52
37 28 -21 -44 l-44 -55 56 60 c131 139 326 426 430 634 26 50 44 91 42 91 -3
0 -21 -28 -41 -62 -20 -35 -34 -54 -31 -44 4 11 1 23 -6 29 -9 6 -8 7 5 3 21
-7 22 1 2 20 -8 9 -15 21 -15 27 0 7 4 6 10 -3 5 -8 10 -11 10 -7 0 5 -9 20
-20 34 -11 14 -20 31 -20 39 0 7 -6 14 -12 16 -10 4 -10 10 -1 31 15 33 9 36
-8 5 -15 -28 -21 -90 -8 -82 5 3 9 -6 9 -20 0 -26 -4 -28 -48 -29 -18 0 -34
-19 -76 -91 -30 -50 -64 -102 -76 -116 -27 -32 -18 -13 39 75 112 175 247 468
334 725 84 247 170 657 152 728 -5 21 -3 23 12 18 10 -4 32 -9 48 -12 29 -4
29 -4 -5 10 -58 24 -74 20 -127 -37z m-743 -1821 c0 -2 -8 -10 -17 -17 -16
-13 -17 -12 -4 4 13 16 21 21 21 13z m-30 -39 c0 -2 -10 -12 -22 -23 l-23 -19
19 23 c18 21 26 27 26 19z m-70 -81 c0 -2 -8 -10 -17 -17 -16 -13 -17 -12 -4
4 13 16 21 21 21 13z"/>
<path d="M2804 7455 c-10 -8 -14 -14 -9 -14 6 0 19 6 29 14 11 8 15 15 10 15
-6 0 -19 -7 -30 -15z"/>
<path d="M10010 7450 c8 -6 31 -14 51 -20 l35 -10 -18 -137 c-47 -363 -147
-698 -313 -1049 -126 -265 -254 -473 -452 -732 -117 -153 -154 -197 -307 -362
-34 -36 2 -3 80 75 198 198 340 381 523 674 117 186 284 553 355 779 61 195
129 510 152 704 l6 57 -53 15 c-60 18 -81 20 -59 6z"/>
<path d="M2634 7424 c3 -8 -1 -14 -10 -14 -11 0 -14 -8 -10 -32 3 -18 13 -76
21 -128 84 -517 285 -1020 588 -1467 323 -478 802 -901 1347 -1190 224 -119
532 -239 792 -307 133 -36 398 -86 450 -86 16 0 28 -4 28 -10 0 -13 -13 -13
-128 6 -525 84 -1040 287 -1498 591 -278 184 -633 505 -827 748 -198 247 -401
579 -510 835 -146 343 -188 493 -284 999 -2 13 -6 21 -8 19 -7 -7 42 -280 77
-423 163 -680 566 -1358 1085 -1828 563 -507 1218 -828 1937 -948 158 -26 171
-24 171 37 0 46 13 41 -225 85 -624 113 -1231 407 -1735 839 -124 107 -354
345 -460 476 -286 356 -519 808 -644 1251 -37 132 -97 420 -103 493 -2 21 -8
34 -15 33 -7 -2 -10 3 -7 11 3 8 -4 16 -16 19 -16 4 -20 2 -16 -9z m43 -81
c-3 -10 -5 -4 -5 12 0 17 2 24 5 18 2 -7 2 -21 0 -30z m3173 -3093 c0 -5 -4
-10 -10 -10 -5 0 -10 5 -10 10 0 6 5 10 10 10 6 0 10 -4 10 -10z"/>
<path d="M2780 7399 c0 -8 16 -93 35 -189 116 -574 352 -1081 712 -1530 175
-219 371 -411 588 -578 80 -61 103 -74 89 -49 -4 7 -3 9 2 4 5 -5 9 -14 9 -20
0 -18 237 -174 403 -265 251 -138 493 -237 768 -311 174 -47 397 -93 428 -89
11 2 -8 9 -44 17 -243 48 -609 145 -597 157 2 3 47 -9 98 -25 169 -53 423
-110 511 -114 l53 -2 3 43 c2 23 1 42 -1 42 -19 0 -194 37 -292 61 -915 229
-1707 802 -2190 1584 -38 61 -110 196 -162 300 -51 105 -93 187 -93 184 0 -3
11 -33 25 -67 14 -34 25 -64 25 -66 0 -10 -56 6 -72 21 -10 8 -22 32 -29 52
-6 20 -28 70 -49 111 -21 42 -47 107 -58 145 -11 39 -27 88 -36 110 -21 49
-60 202 -92 359 -22 110 -34 150 -34 115z"/>
<path d="M3070 6695 c0 -5 5 -17 10 -25 5 -8 10 -10 10 -5 0 6 -5 17 -10 25
-5 8 -10 11 -10 5z"/>
<path d="M9725 6229 c-4 -6 -5 -12 -2 -15 2 -3 7 2 10 11 7 17 1 20 -8 4z"/>
<path d="M9541 6193 c-10 -26 -10 -27 4 -9 8 11 15 23 15 28 0 15 -7 8 -19
-19z"/>
<path d="M9090 5535 c-13 -14 -21 -27 -18 -31 3 -3 16 9 28 25 26 37 22 40
-10 6z"/>
<path d="M9165 5450 c4 -6 11 -8 16 -5 14 9 11 15 -7 15 -8 0 -12 -5 -9 -10z"/>
<path d="M8380 5169 l-35 -30 38 26 c33 24 43 35 34 35 -1 0 -18 -14 -37 -31z"/>
<path d="M8289 5103 c-13 -16 -12 -17 4 -4 9 7 17 15 17 17 0 8 -8 3 -21 -13z"/>
<path d="M8240 5069 c-22 -18 -22 -19 -3 -10 12 6 25 16 28 21 9 15 3 12 -25
-11z"/>
<path d="M8894 5038 l-19 -23 23 19 c12 11 22 21 22 23 0 8 -8 2 -26 -19z"/>
<path d="M7983 4924 c-94 -50 -141 -83 -96 -67 25 9 203 113 203 119 0 6 1 7
-107 -52z"/>
<path d="M7740 4800 c-9 -6 -10 -10 -3 -10 6 0 15 5 18 10 8 12 4 12 -15 0z"/>
<path d="M7687 4563 c-229 -90 -609 -189 -803 -209 l-59 -6 -1 -84 c0 -70 2
-84 15 -84 33 0 270 42 371 65 245 57 545 158 536 180 -2 7 11 43 30 80 19 37
33 73 31 79 -2 6 3 16 12 23 22 17 23 17 -132 -44z"/>
<path d="M6215 4475 c-170 -44 -230 -284 -101 -404 26 -25 48 -23 27 2 -6 8
10 4 36 -9 33 -17 64 -24 107 -24 l61 -1 -35 -19 c-30 -16 -32 -19 -13 -20 13
0 41 7 63 16 31 13 39 21 35 34 -4 12 3 23 21 35 27 17 27 17 21 -6 -5 -20 0
-18 28 15 56 63 70 188 29 256 -14 23 -14 23 -9 3 4 -13 2 -23 -4 -23 -6 0 -6
-11 -1 -29 12 -42 -2 -49 -16 -9 -9 24 -13 27 -14 13 -1 -18 -2 -18 -11 4 -9
23 -10 23 -36 5 -15 -9 -42 -32 -59 -51 -36 -38 -56 -41 -84 -13 -24 24 -25
32 -5 69 15 30 33 41 65 41 24 0 70 21 70 31 0 5 -17 17 -37 28 -46 24 -40 26
16 6 35 -12 41 -12 41 0 0 41 -115 70 -195 50z m25 -15 c0 -5 12 -10 28 -11
l27 -1 -30 -7 c-48 -12 -114 -49 -129 -74 -14 -22 -18 -35 -30 -89 -4 -16 -12
-25 -21 -24 -9 1 -15 5 -15 9 0 4 0 20 0 35 0 41 120 167 163 171 4 1 7 -3 7
-9z m-28 -305 c52 0 62 -3 79 -25 10 -14 23 -30 28 -36 6 -8 1 -15 -15 -23
-54 -24 -120 -6 -158 44 -30 40 -37 76 -9 54 9 -9 40 -14 75 -14z"/>
<path d="M5861 4426 c-8 -19 -8 -33 -2 -39 6 -6 12 -1 16 16 10 39 -1 57 -14
23z"/>
<path d="M6795 4360 c3 -5 8 -10 11 -10 2 0 4 5 4 10 0 6 -5 10 -11 10 -5 0
-7 -4 -4 -10z"/>
<path d="M6795 4160 c-3 -5 -2 -10 4 -10 5 0 13 5 16 10 3 6 2 10 -4 10 -5 0
-13 -4 -16 -10z"/>
<path d="M1793 3829 c-137 -27 -230 -115 -273 -260 -51 -171 -4 -325 118 -387
97 -50 156 -62 337 -72 334 -20 435 -29 465 -45 44 -23 63 -56 54 -99 -4 -23
-2 -42 6 -51 15 -18 -4 -60 -40 -87 -42 -31 -118 -36 -529 -37 -217 0 -398 -4
-402 -8 -7 -7 -71 -217 -66 -218 1 0 232 3 512 6 363 4 521 9 547 17 21 7 65
32 100 55 48 32 69 56 94 101 82 150 63 344 -44 454 -74 76 -158 99 -425 117
-117 8 -241 15 -277 15 -98 1 -160 26 -187 75 -13 22 -23 54 -23 70 0 40 28
94 63 119 28 20 42 21 452 24 l424 3 21 92 c11 51 23 100 26 110 5 16 -21 17
-453 16 -252 -1 -477 -5 -500 -10z m910 -39 c-3 -11 -7 -20 -9 -20 -2 0 -4 9
-4 20 0 11 4 20 9 20 5 0 7 -9 4 -20z m-1163 -1112 c-25 -88 -40 -92 -20 -5
17 69 29 101 37 94 3 -4 -5 -43 -17 -89z"/>
<path d="M5743 3833 l-93 -4 -2 -152 c-2 -84 -3 -175 -3 -202 l0 -51 -50 14
c-28 8 -123 16 -220 19 -244 7 -336 -17 -424 -112 -77 -83 -105 -190 -106
-400 0 -147 22 -222 89 -303 54 -66 95 -96 168 -122 50 -17 83 -20 241 -20
101 0 209 5 241 11 42 7 62 7 69 0 7 -7 60 -11 134 -11 l123 0 -2 573 -3 572
-5 -552 c-3 -303 -9 -555 -13 -560 -11 -11 -96 -7 -131 7 -15 5 -45 10 -67 10
-25 0 -42 5 -45 15 -5 12 -12 12 -47 -3 -35 -14 -78 -17 -252 -17 -116 0 -213
-4 -217 -9 -14 -20 -101 27 -159 85 -58 58 -85 107 -31 57 48 -45 105 -77 167
-93 80 -20 382 -21 480 0 38 8 71 15 72 15 2 0 3 -7 3 -15 0 -13 16 -15 108
-13 l107 3 0 630 c0 623 0 630 -20 631 -11 0 -62 -1 -112 -3z m0 -30 l-63 -4
-1 -112 c-1 -87 -3 -103 -10 -72 -4 22 -8 75 -8 118 l-1 77 73 -2 72 -2 -62
-3z m-231 -540 c114 -5 128 -8 134 -25 9 -29 -5 -90 -18 -82 -8 5 -9 -13 -4
-62 4 -38 7 -107 6 -154 0 -47 3 -106 8 -132 l9 -48 -196 0 c-215 0 -255 7
-305 50 -43 38 -56 86 -56 211 1 228 58 261 422 242z"/>
<path d="M5201 3227 c-66 -23 -90 -84 -91 -230 0 -50 4 -76 10 -72 6 3 10 36
10 73 1 89 24 142 76 168 35 17 60 19 232 17 l192 -1 0 29 0 29 -197 -1 c-126
0 -210 -4 -232 -12z"/>
<path d="M7315 3820 c8 -13 165 -13 185 0 10 7 -18 10 -88 10 -66 0 -101 -4
-97 -10z"/>
<path d="M8325 3820 c3 -5 44 -10 90 -10 46 0 87 5 90 10 4 6 -28 10 -90 10
-62 0 -94 -4 -90 -10z"/>
<path d="M9900 3245 c0 -643 -1 -628 60 -660 20 -10 59 -15 125 -15 52 0 95 2
95 4 0 3 -10 22 -22 43 -22 36 -23 52 -31 353 -4 173 -6 438 -5 588 l3 272
-112 0 -113 0 0 -585z m200 455 l-5 -115 -3 103 -3 102 -74 0 c-73 0 -74 0
-78 -27 -4 -28 -4 -28 -6 3 0 16 -5 34 -10 40 -6 6 26 9 87 9 l97 0 -5 -115z"/>
<path d="M2770 3812 c0 -6 5 -14 10 -17 6 -3 10 -15 10 -26 0 -10 -4 -19 -10
-19 -5 0 -10 -19 -10 -42 0 -24 -6 -65 -13 -92 -10 -39 -15 -46 -24 -34 -10
11 -85 14 -422 17 -405 3 -411 3 -456 -19 -53 -26 -69 -51 -61 -94 4 -17 9
-44 13 -61 11 -58 41 -75 35 -20 -6 48 12 87 51 111 30 18 57 19 450 22 229 2
417 4 417 5 0 1 11 53 24 116 24 114 24 115 5 139 -10 14 -19 20 -19 14z"/>
<path d="M7288 3601 c-10 -261 -10 -1021 -2 -1021 4 0 12 6 18 14 8 10 22 12
46 8 l35 -6 -40 -7 c-33 -5 40 -9 170 -9 4 0 7 116 8 258 l2 257 383 3 382 2
0 -262 0 -263 120 2 c66 1 120 4 120 7 0 1067 -1 1229 -10 1216 -5 -8 -11 -62
-12 -120 -1 -69 -3 -83 -5 -40 -1 36 -5 84 -9 108 l-5 42 -80 0 -79 0 -1 -57
-2 -58 -11 68 c-6 38 -14 65 -18 61 -5 -4 -8 -116 -8 -249 0 -179 3 -244 13
-254 10 -11 7 -12 -13 -5 -14 5 -193 9 -398 9 l-372 0 0 253 c0 166 -3 251
-10 247 -5 -3 -11 -43 -12 -88 0 -45 -3 -66 -5 -47 -2 19 -6 54 -9 78 l-5 42
-80 0 -79 0 0 -114 c0 -164 -19 -159 -22 6 -3 126 -3 122 -10 -81z m207 -1001
c3 -5 2 -10 -4 -10 -5 0 -13 5 -16 10 -3 6 -2 10 4 10 5 0 13 -4 16 -10z
m1010 1 c4 -8 -26 -11 -92 -10 -59 1 -88 4 -73 8 41 12 158 13 165 2z"/>
<path d="M3014 3731 c-2 -2 -4 -66 -4 -142 l0 -138 -72 -3 -73 -3 -5 -93 -5
-94 78 4 79 3 -7 -130 c-18 -362 -9 -424 68 -490 62 -54 119 -67 298 -72 l155
-5 3 96 2 96 -100 0 c-117 0 -144 8 -171 52 -19 31 -20 48 -18 241 l3 209 140
1 140 2 3 93 3 92 -146 0 -145 0 0 146 0 146 -111 -3 c-60 -2 -112 -5 -115 -8z
m36 -36 c0 -8 -2 -15 -4 -15 -2 0 -6 7 -10 15 -3 8 -1 15 4 15 6 0 10 -7 10
-15z m-148 -330 c-5 -84 -22 -84 -22 0 0 45 4 65 13 65 9 0 11 -18 9 -65z"/>
<path d="M9852 3159 c-2 -552 -1 -567 61 -627 l34 -33 108 3 c95 3 109 5 121
23 13 20 11 20 -106 20 -65 0 -122 -3 -126 -7 -14 -14 -21 -8 -21 17 0 15 4
22 10 18 6 -3 -2 10 -18 30 -20 25 -32 32 -37 24 -4 -7 -8 175 -9 403 -1 228
-5 462 -9 520 -4 64 -7 -87 -8 -391z"/>
<path d="M3293 3540 c0 -41 2 -58 4 -37 2 20 2 54 0 75 -2 20 -4 3 -4 -38z"/>
<path d="M3686 3293 c-3 -87 -9 -224 -12 -304 -6 -132 -5 -154 15 -217 19 -62
26 -74 74 -110 108 -84 123 -87 377 -87 185 1 232 4 268 17 41 17 42 17 42 -2
0 -19 7 -20 110 -20 l110 0 0 283 c0 155 3 353 7 440 l6 157 -121 0 -122 0 -2
-237 c-2 -131 -3 -286 -3 -346 l0 -107 -185 0 c-232 1 -273 12 -307 80 -22 43
-23 54 -23 327 l0 283 -114 0 -113 0 -7 -157z m31 100 c-3 -10 -5 -4 -5 12 0
17 2 24 5 18 2 -7 2 -21 0 -30z m761 1 c-3 -14 -5 -12 -10 9 -3 19 -2 25 4 19
6 -6 8 -18 6 -28z m172 26 c0 -5 -5 -10 -11 -10 -5 0 -7 5 -4 10 3 6 8 10 11
10 2 0 4 -4 4 -10z"/>
<path d="M6020 3444 c0 -3 37 -83 81 -178 106 -223 130 -276 124 -276 -6 0
-184 358 -207 415 l-15 40 2 -35 c3 -49 413 -898 414 -859 1 9 -42 108 -94
219 -53 111 -94 204 -92 206 2 2 50 -91 106 -206 l103 -210 -24 -42 c-29 -53
-77 -79 -163 -85 l-63 -6 -27 -89 c-14 -50 -25 -91 -23 -92 12 -7 289 13 313
23 46 19 92 57 123 104 16 23 102 197 191 387 90 190 195 413 234 495 39 83
77 160 85 173 l14 22 -130 0 -130 0 -50 -102 c-95 -195 -232 -530 -232 -565 0
-4 7 2 16 13 14 18 15 18 4 -4 -12 -25 -30 -21 -30 6 0 9 -28 80 -61 157 -33
77 -82 192 -109 256 -26 63 -63 143 -81 177 l-32 62 -124 0 c-67 0 -123 -3
-123 -6z m84 -106 c20 -43 33 -78 31 -78 -3 0 -21 33 -40 73 -20 39 -40 76
-46 82 -5 5 -9 14 -9 19 0 23 31 -24 64 -96z m928 50 c-8 -8 -9 -4 -5 13 4 13
8 18 11 10 2 -7 -1 -18 -6 -23z m-21 -45 c-12 -20 -14 -14 -5 12 4 9 9 14 11
11 3 -2 0 -13 -6 -23z m-794 -955 c-3 -8 -6 -5 -6 6 -1 11 2 17 5 13 3 -3 4
-12 1 -19z m-20 -70 c-3 -8 -6 -5 -6 6 -1 11 2 17 5 13 3 -3 4 -12 1 -19z
m-10 -40 c-3 -8 -6 -5 -6 6 -1 11 2 17 5 13 3 -3 4 -12 1 -19z"/>
<path d="M8965 3436 c-62 -20 -97 -41 -136 -83 -82 -86 -105 -177 -96 -393 5
-132 8 -153 31 -198 37 -73 80 -118 139 -146 93 -43 147 -48 479 -44 l309 3
-5 29 c-3 16 -6 55 -6 87 l0 58 -302 3 c-283 3 -305 4 -338 23 -39 23 -80 93
-80 136 l0 28 349 3 349 3 25 23 c30 28 37 84 25 185 -15 127 -79 222 -182
269 -48 22 -64 23 -286 25 -171 2 -246 -1 -275 -11z m348 -13 c-51 -2 -135 -2
-185 0 -51 1 -10 3 92 3 102 0 143 -2 93 -3z m-296 -9 c-3 -3 -12 -4 -19 -1
-8 3 -5 6 6 6 11 1 17 -2 13 -5z m388 -159 c44 -22 85 -88 85 -137 l0 -28
-265 0 -265 0 0 30 c0 68 39 121 107 146 59 22 285 15 338 -11z m260 -655 c3
-5 1 -10 -4 -10 -6 0 -11 5 -11 10 0 6 2 10 4 10 3 0 8 -4 11 -10z"/>
<path d="M9050 3234 c-29 -13 -60 -49 -60 -72 0 -8 9 -6 28 8 36 27 127 40
234 33 116 -7 144 -17 174 -65 33 -53 53 -39 33 23 -25 76 -47 84 -226 84 -96
0 -166 -4 -183 -11z"/>
<path d="M10375 3440 c3 -5 46 -10 94 -10 82 0 89 -2 94 -21 4 -17 3 -19 -6
-10 -6 6 -44 11 -89 11 l-78 0 0 -81 c0 -51 -4 -78 -10 -74 -5 3 -10 45 -10
92 0 48 -2 84 -4 82 -2 -2 -7 -268 -11 -591 l-7 -588 116 0 116 0 0 176 0 176
28 -7 c15 -4 68 -11 117 -16 194 -19 387 -5 415 30 8 10 31 27 50 36 31 16 34
16 21 2 -27 -33 9 -17 53 23 64 59 96 139 106 264 19 226 -29 376 -144 453
-78 53 -109 58 -346 58 -174 0 -223 -3 -257 -16 -41 -16 -43 -16 -43 2 0 17
-9 19 -106 19 -67 0 -103 -4 -99 -10z m659 -19 c16 -3 -60 -6 -169 -6 -110 0
-186 3 -169 6 16 4 92 7 169 7 77 0 153 -3 169 -7z m13 -179 c72 -37 88 -81
88 -237 0 -118 -2 -133 -23 -166 -41 -67 -69 -74 -314 -77 l-218 -3 0 250 0
250 28 4 c15 3 110 4 212 3 168 -2 189 -5 227 -24z m-670 -84 c-2 -13 -4 -3
-4 22 0 25 2 35 4 23 2 -13 2 -33 0 -45z m151 -885 c-15 -2 -42 -2 -60 0 -18
2 -6 4 27 4 33 0 48 -2 33 -4z"/>
<path d="M10600 3214 c0 -22 1 -22 188 -26 220 -4 241 -10 275 -86 17 -40 20
-64 19 -156 -2 -130 13 -133 29 -5 20 155 -4 243 -75 281 -14 8 -93 12 -228
13 l-208 1 0 -22z"/>
<path d="M7092 3396 c-8 -21 -56 -126 -107 -234 -51 -109 -143 -305 -205 -437
-61 -132 -125 -268 -141 -302 -29 -60 -125 -172 -164 -190 -11 -5 -65 -11
-120 -13 -158 -6 -189 -5 -209 4 -16 8 -17 6 -11 -15 4 -13 9 -26 12 -29 2 -2
57 -4 121 -3 161 1 218 18 286 86 45 45 71 92 205 372 233 482 352 747 349
774 -3 22 -5 20 -16 -13z"/>
<path d="M3568 3365 c-5 -22 -11 -61 -14 -86 -6 -42 -8 -45 -30 -41 -15 3 -32
-2 -43 -12 -16 -15 -21 -15 -54 -1 -20 8 -66 15 -102 15 l-66 0 6 -67 c3 -38
11 -108 17 -157 5 -48 7 -111 4 -140 -5 -36 -3 -57 7 -69 11 -16 12 -10 9 47
-2 37 -1 126 3 199 l7 133 131 3 c73 1 133 4 135 6 1 1 1 49 0 106 -2 81 -5
95 -10 64z"/>
<path d="M3956 3280 c-11 -69 -1 -439 13 -453 8 -8 11 48 10 219 -1 238 -9
320 -23 234z"/>
<path d="M4700 2928 c0 -319 -2 -378 -14 -378 -8 0 -16 -4 -18 -9 -5 -15 -221
9 -231 25 -6 10 -17 10 -57 -2 -72 -21 -455 -36 -495 -19 -16 7 -57 37 -89 66
-32 29 -54 44 -48 32 24 -45 104 -103 170 -123 54 -17 92 -20 241 -20 116 0
196 5 236 14 52 13 61 13 68 0 6 -11 35 -14 132 -14 l125 0 0 388 c0 232 -4
393 -10 402 -6 10 -10 -115 -10 -362z"/>
<path d="M10308 3270 c-10 -34 -9 -1010 1 -1035 15 -37 21 282 14 675 -5 212
-11 374 -15 360z"/>
<path d="M2885 3216 c12 -18 27 -25 61 -28 42 -3 44 -2 44 24 0 31 -20 37 -44
13 -8 -8 -21 -15 -29 -15 -8 0 -17 7 -21 15 -3 8 -10 15 -16 15 -6 0 -4 -10 5
-24z"/>
<path d="M1680 3120 c75 -66 169 -85 485 -100 212 -11 286 -20 313 -42 8 -8
12 -6 12 4 0 26 -46 66 -86 77 -22 5 -158 14 -304 20 -284 11 -365 21 -420 52
l-35 19 35 -30z"/>
<path d="M7550 3045 l0 -30 352 0 353 0 6 -100 5 -100 2 130 2 130 -360 0
-360 0 0 -30z"/>
<path d="M2781 3069 c-1 -3 5 -28 13 -55 8 -27 17 -62 20 -79 2 -16 3 -7 2 20
-3 40 -32 136 -35 114z"/>
<path d="M8705 2910 c4 -188 44 -277 152 -349 87 -58 113 -61 479 -61 331 0
333 0 348 22 21 30 13 34 -28 14 -37 -17 -102 -22 -108 -7 -2 5 -139 11 -311
13 l-307 3 -24 26 c-17 19 -32 25 -49 22 -18 -4 -30 2 -46 22 -11 15 -21 35
-21 44 0 9 -6 25 -14 36 -31 47 -59 144 -66 240 l-9 100 4 -125z"/>
<path d="M9700 2949 c0 -5 5 -7 10 -4 6 3 10 8 10 11 0 2 -4 4 -10 4 -5 0 -10
-5 -10 -11z"/>
<path d="M8984 2893 c3 -8 6 -18 6 -23 0 -10 437 -13 518 -4 36 5 56 12 62 24
10 18 -4 19 -291 18 -261 0 -300 -2 -295 -15z"/>
<path d="M2812 2832 c-1 -16 -7 -22 -19 -20 -14 2 -19 -7 -24 -48 -8 -61 -14
-74 -38 -74 -9 0 -30 -13 -46 -30 -16 -16 -23 -30 -17 -30 7 0 12 -9 12 -20 0
-17 -7 -20 -45 -20 -31 0 -47 -5 -54 -17 -11 -21 27 -19 -482 -22 -322 -2
-448 -8 -547 -27 -24 -5 -38 -2 -52 11 -11 10 -20 14 -20 8 0 -5 8 -18 19 -27
17 -15 61 -16 532 -14 509 3 515 3 571 26 102 41 170 112 203 212 9 27 15 64
12 82 -2 20 -4 24 -5 10z"/>
<path d="M3553 2643 l2 -99 -137 -1 c-103 -1 -142 -5 -158 -16 -20 -14 -20
-14 11 -21 17 -3 94 -6 170 -6 l139 0 0 109 c0 83 -3 111 -15 121 -12 10 -14
-2 -12 -87z"/>
<path d="M11264 2632 c-40 -36 -56 -46 -155 -91 -51 -23 -85 -27 -91 -10 -4
12 -231 14 -277 2 -16 -4 -22 -2 -17 5 4 7 -4 14 -21 17 -15 3 -43 10 -61 15
-36 9 -47 -1 -40 -37 5 -27 85 -35 298 -30 163 3 192 7 244 27 57 22 137 84
157 122 13 24 10 23 -37 -20z"/>
<path d="M8263 2595 c0 -22 2 -30 4 -17 2 12 2 30 0 40 -3 9 -5 -1 -4 -23z"/>
<path d="M3104 2591 c4 -6 16 -16 28 -22 15 -8 18 -8 14 0 -4 6 -16 16 -28 22
-15 8 -18 8 -14 0z"/>
<path d="M7260 2525 l0 -26 143 3 c141 3 142 3 145 27 3 21 1 23 -25 17 -34
-9 -48 -9 -91 0 -20 4 -51 1 -74 -7 -31 -10 -44 -10 -59 -1 -29 18 -39 15 -39
-13z"/>
<path d="M8271 2532 c-6 -12 -11 -23 -11 -27 0 -3 64 -4 143 -3 140 3 142 3
145 26 3 21 1 23 -25 18 -46 -9 -165 -10 -205 -2 -31 7 -38 5 -47 -12z"/>
<path d="M10547 2209 c-37 -19 -77 -18 -77 2 0 5 -31 9 -68 9 -56 0 -72 -4
-87 -20 -18 -20 -17 -20 117 -20 134 0 136 0 152 25 20 30 13 31 -37 4z"/>
<path d="M4710 2096 c-31 -6 -76 -24 -102 -38 -71 -42 -128 -146 -128 -235 0
-31 1 -32 26 -23 14 6 56 7 95 4 49 -5 69 -4 69 5 0 7 -28 11 -85 11 l-85 0 0
33 c2 88 54 163 147 209 l68 33 205 -1 c218 0 253 -6 322 -55 20 -15 29 -17
26 -8 -8 23 -78 57 -143 68 -81 14 -345 13 -415 -3z"/>
<path d="M7498 2103 c39 -2 105 -2 145 0 39 1 7 3 -73 3 -80 0 -112 -2 -72 -3z"/>
<path d="M7395 2020 c0 -44 3 -80 7 -80 7 0 15 133 10 150 -11 30 -18 0 -17
-70z"/>
<path d="M8227 2093 c-4 -3 -7 -11 -7 -17 0 -6 5 -5 12 2 6 6 9 14 7 17 -3 3
-9 2 -12 -2z"/>
<path d="M4723 1945 c-44 -19 -54 -42 -44 -103 l8 -50 -93 -4 c-51 -1 -96 -6
-100 -11 -18 -18 20 -28 112 -30 l98 -2 8 44 c7 43 31 81 51 81 6 0 2 -7 -9
-16 -18 -14 -18 -15 4 -4 12 6 22 15 22 20 0 6 60 10 153 9 83 -1 144 -3 135
-6 -10 -2 -18 -8 -18 -12 0 -12 67 -81 79 -81 6 0 11 -12 12 -27 l1 -28 13 30
c7 17 16 51 20 77 7 43 5 49 -28 85 l-35 38 -104 2 c-65 0 -87 -1 -58 -5 33
-5 40 -9 27 -14 -23 -10 -110 -10 -162 -1 l-40 8 40 6 40 6 -50 1 c-27 1 -64
-5 -82 -13z"/>
<path d="M5999 1903 c-60 -63 -265 -295 -288 -328 -8 -11 14 7 48 40 l64 60
-71 -85 c-39 -47 -68 -88 -64 -92 4 -4 31 -5 60 -1 30 3 48 9 41 13 -6 4 -9
13 -5 19 5 7 1 9 -11 4 -12 -4 -9 4 11 25 30 33 49 44 26 17 -7 -9 -11 -17 -9
-20 8 -7 69 27 70 39 0 6 2 21 3 34 3 21 2 21 -18 5 -11 -10 -5 1 14 25 27 34
36 40 42 27 5 -8 18 -15 28 -15 24 0 70 21 70 32 0 4 5 8 10 8 6 0 10 -40 10
-100 0 -55 4 -100 9 -100 24 0 31 95 23 288 l-7 163 -56 -58z m-119 -166 c0
-2 -10 -12 -22 -23 l-23 -19 19 23 c18 21 26 27 26 19z"/>
<path d="M7545 1950 c-4 -6 44 -10 137 -11 79 -1 130 -4 114 -8 -17 -3 -115
-5 -219 -4 -185 1 -188 1 -185 -19 3 -19 10 -21 63 -20 33 0 162 -2 288 -5
l227 -6 -71 -136 c-39 -75 -67 -131 -62 -126 26 28 203 324 203 340 0 10 -489
5 -495 -5z m478 -7 c-7 -2 -21 -2 -30 0 -10 3 -4 5 12 5 17 0 24 -2 18 -5z"/>
<path d="M8046 1680 c-92 -154 -169 -280 -171 -280 -2 0 -1 8 2 19 4 15 -3 20
-34 26 -21 5 -42 8 -46 7 -4 -1 -3 7 3 19 7 11 10 23 8 25 -5 4 -183 -291
-194 -320 -5 -14 4 -16 60 -16 63 0 66 1 81 30 9 17 18 30 20 30 15 0 -38 -80
-53 -81 -9 -1 -3 -5 13 -9 22 -6 7 -8 -52 -9 -45 0 -93 -5 -107 -11 -14 -5
-26 -6 -26 -1 0 13 26 21 73 22 l42 1 -35 8 c-53 13 -114 -20 -94 -51 3 -5 54
-9 113 -9 106 0 108 0 120 26 6 14 8 30 5 36 -4 6 -2 8 4 4 6 -3 63 85 142
221 182 315 269 461 297 506 24 38 28 77 7 84 -5 2 -86 -123 -178 -277z"/>
<path d="M6214 1810 c0 -80 2 -112 3 -72 2 39 2 105 0 145 -1 39 -3 7 -3 -73z"/>
<path d="M6231 1678 c0 -127 3 -176 10 -159 11 28 8 341 -3 341 -4 0 -8 -82
-7 -182z"/>
<path d="M6500 1841 c0 -6 27 -40 60 -78 33 -37 60 -72 60 -78 0 -5 -20 13
-45 40 l-45 50 52 -71 c29 -39 80 -104 112 -143 l59 -72 -21 -29 c-35 -47 -24
-48 17 -2 l38 44 -26 26 c-38 39 -105 121 -114 140 -5 10 12 -5 37 -31 25 -27
46 -46 46 -43 0 8 -154 198 -180 221 l-22 20 88 6 89 5 -102 2 c-59 1 -103 -2
-103 -7z"/>
<path d="M7113 1843 c26 -2 67 -2 90 0 23 2 2 3 -48 3 -49 0 -68 -1 -42 -3z"/>
<path d="M7228 1832 c-25 -16 -237 -264 -259 -304 -7 -12 1 -28 31 -66 43 -55
75 -82 49 -42 -47 72 -46 65 -3 112 22 24 77 91 122 150 46 59 87 110 93 113
11 7 12 55 2 54 -5 0 -20 -8 -35 -17z m21 -29 c-32 -42 -69 -83 -69 -77 0 3
-8 0 -17 -7 -23 -18 9 24 52 69 32 33 57 44 34 15z"/>
<path d="M5332 1749 c-14 -57 -77 -130 -137 -159 -25 -12 -135 -39 -250 -61
-114 -21 -216 -44 -227 -50 -15 -8 -18 -8 -14 0 4 6 28 18 54 26 l47 15 -42
-5 c-23 -3 -44 -1 -48 4 -3 5 -31 7 -63 4 -54 -6 -56 -5 -42 12 14 17 13 17
-5 8 -11 -6 -28 -20 -37 -30 -23 -25 -58 -103 -58 -130 0 -12 -5 -25 -10 -28
-11 -7 -4 62 11 103 14 36 1 25 -23 -20 -19 -37 -23 -63 -26 -179 -3 -91 0
-143 7 -158 12 -21 12 -21 456 -21 l445 0 0 88 c0 48 -5 94 -10 102 -7 10 -10
-11 -10 -67 l0 -83 -47 0 c-27 0 -225 -1 -441 -3 l-392 -2 0 51 c0 29 7 65 15
80 15 29 15 29 15 -28 l0 -58 405 0 405 0 0 49 c0 41 -3 50 -17 50 -10 0 -121
3 -248 6 -126 3 -269 5 -317 5 l-88 0 0 43 c0 58 12 67 25 20 6 -21 14 -37 18
-35 4 1 20 2 36 2 26 0 33 7 58 59 l28 59 70 16 c39 9 122 26 185 37 126 22
185 45 241 97 36 32 79 116 66 129 -4 3 -30 -20 -59 -52 -29 -31 -70 -66 -91
-77 -60 -30 -55 -14 6 20 60 34 114 98 123 148 10 53 -1 63 -14 13z m-365
-245 c-3 -3 -12 -4 -19 -1 -8 3 -5 6 6 6 11 1 17 -2 13 -5z"/>
<path d="M1919 1757 c25 -12 47 -28 49 -35 2 -8 -14 -2 -37 13 -32 22 -47 26
-75 21 -50 -9 -86 -42 -86 -76 0 -16 -4 -32 -10 -35 -5 -3 -10 -1 -10 6 0 9
-3 10 -10 3 -14 -14 5 -77 31 -100 l21 -19 -18 32 c-10 17 -15 35 -12 39 11
10 40 -17 34 -33 -7 -16 43 -43 81 -44 25 0 26 -1 8 -9 -18 -8 -18 -9 5 -9 32
-1 84 30 106 64 13 20 25 25 63 26 l46 2 -40 7 c-22 4 376 8 885 8 600 1 920
-2 910 -8 -11 -7 -7 -10 17 -10 25 0 36 -7 49 -30 19 -32 47 -50 37 -23 -5 13
-3 13 25 -1 44 -23 73 -20 118 10 24 17 33 20 24 9 -8 -10 -28 -26 -45 -37
-37 -22 -25 -24 20 -2 62 29 88 102 61 167 -8 21 -18 37 -21 37 -3 0 -1 -9 5
-19 5 -11 10 -28 10 -38 -1 -11 -7 -6 -18 17 -36 72 -124 89 -179 34 -32 -32
-39 -31 -19 4 16 26 16 26 -8 -3 -14 -16 -26 -33 -26 -37 0 -5 -427 -8 -949
-8 l-949 0 -21 34 c-12 19 -37 41 -55 50 -52 25 -67 18 -17 -7z m-2 -58 c20
-17 16 -76 -7 -99 -24 -24 -67 -26 -92 -3 -27 24 -24 87 5 108 23 17 69 14 94
-6z m2173 1 c11 -11 20 -33 20 -50 0 -17 -9 -39 -20 -50 -11 -11 -33 -20 -50
-20 -65 0 -94 79 -44 119 34 26 68 27 94 1z m-1127 -37 c-160 -2 -426 -2 -590
0 -164 1 -32 2 292 2 325 0 459 -1 298 -2z m-1017 -118 c-11 -8 -25 -15 -30
-15 -6 1 0 7 14 15 32 19 40 18 16 0z"/>
<path d="M5684 1748 l-19 -23 23 19 c21 18 27 26 19 26 -2 0 -12 -10 -23 -22z"/>
<path d="M8778 1743 c17 -17 32 -37 32 -43 0 -7 -9 -1 -20 13 -24 31 -78 50
-114 41 -32 -8 -76 -51 -76 -75 0 -10 -5 -21 -12 -25 -8 -5 -9 2 -5 27 5 24 4
30 -3 19 -5 -8 -10 -37 -10 -63 0 -42 5 -54 34 -83 19 -19 39 -34 46 -34 7 0
2 9 -11 20 l-24 19 43 -16 c34 -13 50 -14 80 -5 33 10 35 10 18 -3 -13 -10
-15 -15 -6 -15 7 0 30 18 51 40 31 32 45 40 76 41 30 0 34 2 18 9 -11 5 422 8
995 7 l1015 -2 -825 -5 -825 -5 837 -3 837 -2 23 -31 c25 -34 67 -59 95 -58
10 0 -1 9 -24 19 -38 17 -77 60 -54 60 5 0 11 -7 14 -14 3 -8 20 -22 36 -31
30 -15 70 -12 126 11 18 7 19 6 5 -12 -10 -14 -7 -13 12 4 22 20 25 29 21 70
-7 68 -19 94 -58 121 -40 27 -77 24 -128 -10 l-32 -21 33 31 c18 17 28 31 23
31 -16 0 -70 -50 -76 -70 -6 -20 -23 -20 -1058 -20 l-1052 1 -20 31 c-11 17
-31 38 -45 47 -19 12 -17 8 8 -16z m2368 -40 c-7 -7 -26 7 -26 19 0 6 6 6 15
-2 9 -7 13 -15 11 -17z m-2399 -5 c25 -24 29 -48 12 -81 -16 -29 -28 -37 -63
-37 -40 0 -66 26 -66 67 0 65 69 96 117 51z m2364 11 c42 -22 40 -97 -3 -120
-11 -6 -17 -17 -14 -25 3 -8 -1 -14 -9 -14 -8 0 -14 3 -13 8 1 4 -12 21 -30
39 -37 37 -41 68 -10 100 23 25 48 29 79 12z m-1508 -46 c-29 -2 -77 -2 -105
0 -29 2 -6 3 52 3 58 0 81 -1 53 -3z m-985 -73 c7 -11 8 -20 2 -20 -5 0 -14 9
-20 20 -6 11 -7 20 -3 20 5 0 14 -9 21 -20z m2554 -22 c-7 -7 -12 -8 -12 -2 0
14 12 26 19 19 2 -3 -1 -11 -7 -17z"/>
<path d="M5634 1688 l-19 -23 23 19 c21 18 27 26 19 26 -2 0 -12 -10 -23 -22z"/>
<path d="M11191 1614 c0 -11 3 -14 6 -6 3 7 2 16 -1 19 -3 4 -6 -2 -5 -13z"/>
<path d="M2658 1603 c57 -2 147 -2 200 0 53 1 7 3 -103 3 -110 0 -154 -2 -97
-3z"/>
<path d="M2998 1603 c12 -2 32 -2 45 0 12 2 2 4 -23 4 -25 0 -35 -2 -22 -4z"/>
<path d="M3273 1603 c75 -2 199 -2 275 0 75 1 13 3 -138 3 -151 0 -213 -2
-137 -3z"/>
<path d="M3713 1603 c15 -2 37 -2 50 0 12 2 0 4 -28 4 -27 0 -38 -2 -22 -4z"/>
<path d="M9158 1603 c6 -2 18 -2 25 0 6 3 1 5 -13 5 -14 0 -19 -2 -12 -5z"/>
<path d="M5541 1535 c-29 -33 -31 -41 -31 -110 l0 -75 208 -2 c172 -2 189 -3
102 -8 l-105 -6 135 -3 c207 -5 91 -19 -164 -20 l-209 -1 7 95 c5 65 4 95 -3
95 -13 0 -15 -188 -3 -207 6 -9 77 -13 277 -15 l270 -3 5 -75 5 -75 9 50 c5
28 9 78 10 113 1 34 4 62 9 62 4 0 7 -43 7 -95 l0 -95 60 0 60 0 2 53 c1 28 1
69 0 89 -1 20 2 39 8 43 6 4 10 -9 11 -32 1 -34 2 -35 9 -13 5 16 8 -11 9 -77
l1 -103 -100 0 c-55 0 -100 -3 -100 -7 1 -29 20 -34 116 -31 l99 3 3 85 c1 47
5 91 7 98 3 8 25 12 65 12 l60 0 0 106 c0 80 -3 105 -12 102 -8 -3 -14 -29
-16 -71 -4 -81 -22 -90 -22 -11 l0 56 -70 -4 -70 -3 0 50 c0 28 -4 45 -8 39
-6 -10 -77 -29 -94 -26 -3 1 -9 -12 -13 -28 l-7 -30 -215 0 -215 0 4 29 c4 26
1 30 -26 37 -17 4 -37 7 -43 7 -16 -1 -16 10 -1 25 7 7 9 12 6 12 -3 0 -20
-16 -37 -35z m482 -182 c-13 -2 -33 -2 -45 0 -13 2 -3 4 22 4 25 0 35 -2 23
-4z m297 3 c0 -2 -7 -6 -15 -10 -8 -3 -15 -1 -15 4 0 6 7 10 15 10 8 0 15 -2
15 -4z m50 -36 c0 -12 -77 -12 -105 0 -14 6 -2 9 43 9 35 1 62 -3 62 -9z"/>
<path d="M4818 1523 c6 -2 18 -2 25 0 6 3 1 5 -13 5 -14 0 -19 -2 -12 -5z"/>
<path d="M6668 1327 c-68 -82 -124 -153 -126 -158 -2 -5 25 -9 60 -9 60 0 64
2 96 37 l34 38 -28 -38 c-15 -21 -37 -45 -48 -53 l-20 -14 21 0 c15 0 35 19
67 65 51 73 57 88 24 59 -20 -18 -20 -17 2 14 27 36 32 40 23 15 -4 -12 5 -8
27 12 27 24 23 16 -21 -45 -30 -41 -63 -87 -74 -103 -19 -28 -23 -29 -118 -32
-89 -2 -115 5 -62 18 16 4 15 5 -6 6 -34 1 -64 -21 -56 -43 5 -13 23 -16 115
-16 l109 0 66 88 c87 113 125 158 129 152 86 -110 143 -182 166 -207 l28 -33
108 0 c90 0 108 3 113 16 4 12 -5 26 -28 45 -19 16 -39 29 -45 29 -6 0 -52 51
-102 113 -85 105 -169 203 -142 165 13 -19 1 -25 -16 -8 -6 6 -47 16 -92 23
l-81 13 -123 -149z m237 67 c9 -14 53 -73 97 -130 l81 -104 80 0 c81 0 98 -14
27 -23 -28 -3 -24 -4 20 -7 43 -3 34 -5 -45 -9 l-100 -6 -35 51 c-19 27 -60
85 -90 128 -30 43 -54 84 -52 92 2 8 -2 14 -8 14 -5 0 -10 5 -10 10 0 18 18
10 35 -16z"/>
<path d="M4950 1140 c-79 -5 -45 -7 138 -8 160 -1 241 1 237 8 -7 11 -192 11
-375 0z"/>
<path d="M4693 1133 c15 -2 39 -2 55 0 15 2 2 4 -28 4 -30 0 -43 -2 -27 -4z"/>
<path d="M6178 1133 c6 -2 18 -2 25 0 6 3 1 5 -13 5 -14 0 -19 -2 -12 -5z"/>
</g>
</svg>
